<!-- Created with Inkscape (http://www.inkscape.org/) -->
<svg xmlns:rdf="http://www.w3.org/1999/02/22-rdf-syntax-ns#" xmlns="http://www.w3.org/2000/svg" xml:space="preserve" height="113.39" viewBox="0 0 194.88251 113.38587" width="194.88" version="1.1" xmlns:cc="http://creativecommons.org/ns#" xmlns:dc="http://purl.org/dc/elements/1.1/"><metadata><rdf:RDF><cc:Work rdf:about=""><dc:format>image/svg+xml</dc:format><dc:type rdf:resource="http://purl.org/dc/dcmitype/StillImage"/><dc:title/></cc:Work></rdf:RDF></metadata><g transform="matrix(1.25 0 0 -1.25 0 113.39)"><g transform="matrix(1 0 0 -1 23.678 22.164)" fill="#231f20"><path style="" d="m0.62546 0v-5.66h4.0925v0.66793h-3.3435v1.7335h3.1311v0.66406h-3.1311v1.9266h3.4748v0.66793h-4.2238z"/><path style="" d="m8.4823 0v-0.60229q-0.47874 0.69495-1.3011 0.69495-0.36292 0-0.67951-0.13899-0.3127-0.13899-0.4671-0.34748-0.1506-0.21234-0.2124-0.51735-0.0425-0.20464-0.0425-0.64864v-2.5404h0.69495v2.274q0 0.54438 0.042469 0.73356 0.065634 0.27412 0.27798 0.43241 0.21235 0.15443 0.52507 0.15443 0.31273 0 0.58685-0.15829 0.27412-0.16216 0.38608-0.43627 0.11583-0.27798 0.11583-0.80305v-2.1968h0.69495v4.1002h-0.6216z"/><path style="" d="m10.184 0v-4.1002h0.62546v0.6216q0.23937-0.43627 0.44014-0.57527 0.20462-0.13899 0.44786-0.13899 0.35134 0 0.71426 0.22393l-0.23937 0.64476q-0.25482-0.15057-0.50963-0.15057-0.22779 0-0.40925 0.13899-0.18146 0.13513-0.25868 0.37836-0.11582 0.37064-0.11582 0.81078v2.1466h-0.69495z"/><path style="" d="m12.566-2.0501q0-1.1389 0.63318-1.6872 0.52894-0.45558 1.2895-0.45558 0.84552 0 1.3822 0.55596 0.53666 0.5521 0.53666 1.5289 0 0.79147-0.23937 1.2471-0.23551 0.45172-0.69109 0.70267-0.45172 0.25095-0.98838 0.25095-0.86097 0-1.3938-0.5521-0.529-0.5521-0.529-1.5907zm0.71426 0q0 0.78761 0.34362 1.1814 0.34361 0.38994 0.86483 0.38994 0.51735 0 0.86097-0.39381t0.34362-1.2007q0-0.76059-0.34748-1.1505-0.34362-0.39381-0.85711-0.39381-0.52121 0-0.86483 0.38994t-0.34362 1.1776z"/><path style="" d="m16.962-2.0501q0-1.1389 0.63318-1.6872 0.52894-0.45558 1.2895-0.45558 0.84552 0 1.3822 0.55596 0.53666 0.5521 0.53666 1.5289 0 0.79147-0.23937 1.2471-0.23551 0.45172-0.69109 0.70267-0.45172 0.25095-0.98838 0.25095-0.86097 0-1.3938-0.5521-0.529-0.5521-0.529-1.5907zm0.71426 0q0 0.78761 0.34361 1.1814 0.34362 0.38994 0.86483 0.38994 0.51735 0 0.86097-0.39381 0.344-0.3938 0.344-1.2007 0-0.76059-0.34748-1.1505-0.34362-0.39381-0.85711-0.39381-0.52121 0-0.86483 0.38994-0.34361 0.38994-0.34361 1.1776z"/><path style="" d="m21.617 1.5714v-5.6716h0.63318v0.5328q0.22393-0.31273 0.50577-0.46716 0.28184-0.15829 0.68337-0.15829 0.52508 0 0.9266 0.27026 0.40153 0.27026 0.60615 0.76445 0.20462 0.49033 0.20462 1.0772 0 0.62932-0.22779 1.1351-0.22393 0.50191-0.65634 0.77217-0.42855 0.2664-0.90344 0.2664-0.34748 0-0.62546-0.14671-0.27412-0.14671-0.45172-0.37064v1.9961h-0.69495zm0.62932-3.5983q0 0.79147 0.32045 1.1698 0.32045 0.37836 0.77603 0.37836 0.4633 0 0.79147-0.38994 0.33203-0.39381 0.33203-1.2162 0-0.78375-0.32431-1.1737-0.32045-0.38994-0.76831-0.38994-0.444 0-0.78761 0.41697-0.33975 0.41311-0.33975 1.2046z"/><path style="" d="m28.689-0.50577q-0.38608 0.32817-0.74514 0.4633-0.3552 0.13513-0.76445 0.13513-0.67565 0-1.0386-0.32817-0.36292-0.33203-0.36292-0.84552 0-0.30115 0.13513-0.54824 0.13899-0.25095 0.35906-0.40153 0.22393-0.15057 0.50191-0.22779 0.20462-0.054052 0.61774-0.10424 0.84166-0.10038 1.2393-0.23937 0.0039-0.14285 0.0039-0.18146 0-0.42469-0.1969-0.59843-0.2664-0.23551-0.79147-0.23551-0.49033 0-0.72584 0.17374-0.23165 0.16988-0.34362 0.60615l-0.67951-0.09266q0.09266-0.43627 0.30501-0.70267 0.21235-0.27026 0.61387-0.41311 0.40153-0.14671 0.93046-0.14671 0.52507 0 0.85325 0.12355 0.32817 0.12355 0.4826 0.31273 0.15443 0.18532 0.21621 0.47102 0.03475 0.1776 0.03475 0.6409v0.9266q0 0.96907 0.04247 1.2277 0.048 0.25499 0.179 0.4905h-0.72584q-0.1081-0.21621-0.13899-0.50577zm-0.05791-1.5521q-0.37836 0.15443-1.1351 0.26254-0.42855 0.061773-0.60615 0.13899t-0.27412 0.22779q-0.09652 0.14671-0.09652 0.32817 0 0.27798 0.20848 0.4633 0.21235 0.18532 0.61774 0.18532 0.40153 0 0.71426-0.17374 0.31273-0.1776 0.45944-0.4826 0.11196-0.23551 0.11196-0.69495v-0.25482z"/><path style="" d="m32.666 0v-5.66h0.749v4.9921h2.7875v0.66793h-3.5365z"/><path style="" d="m37.008-4.8608v-0.79919h0.69495v0.79919h-0.69495zm0 4.8608v-4.1002h0.69495v4.1002h-0.69495z"/><path style="" d="m38.763-4.8608v-0.79919h0.69495v0.79919h-0.69495zm0 4.8608v-4.1002h0.69495v4.1002h-0.69495z"/><path style="" d="m42.032-0.6216 0.10038 0.61387q-0.29342 0.061773-0.52507 0.061773-0.37836 0-0.58685-0.11969-0.20848-0.11969-0.29342-0.31273-0.08494-0.1969-0.08494-0.82236v-2.359h-0.50963v-0.54052h0.50963v-1.0154l0.69109-0.41697v1.4324h0.69881v0.54052h-0.69881v2.3976q0 0.29728 0.03475 0.38222 0.03861 0.084938 0.11969 0.13513 0.08494 0.050191 0.23937 0.050191 0.11582 0 0.30501-0.027026z"/><path style="" d="m-11.895 8.0705v-5.66h4.0925v0.66793h-3.3435v1.7335h3.1311v0.66406h-3.1311v1.9266h3.4748v0.66793h-4.2238z"/><path style="" d="m-4.0386 8.0705v-0.60229q-0.47874 0.69495-1.3011 0.69495-0.36292 0-0.67951-0.13899-0.3127-0.139-0.4671-0.3475-0.1506-0.2124-0.2124-0.5174-0.0425-0.2046-0.0425-0.6486v-2.5404h0.69495v2.274q0 0.54438 0.042469 0.73356 0.065634 0.27412 0.27798 0.43241 0.21235 0.15443 0.52507 0.15443 0.31273 0 0.58685-0.15829 0.27412-0.16216 0.38608-0.43627 0.11583-0.27798 0.11583-0.80305v-2.1968h0.69495v4.1002h-0.6216z"/><path style="" d="m-2.3371 8.0705v-4.1002h0.62546v0.6216q0.23937-0.43627 0.44014-0.57527 0.20462-0.13899 0.44786-0.13899 0.35134 0 0.71426 0.22393l-0.23951 0.6447q-0.25482-0.1506-0.50964-0.1506-0.22779 0-0.40925 0.13899-0.18146 0.13513-0.25868 0.37836-0.11583 0.37064-0.11583 0.81078v2.1466h-0.69495z"/><path style="" d="m0.044929 6.0204q0-1.1389 0.63318-1.6872 0.52894-0.45558 1.2895-0.45558 0.84552 0 1.3822 0.55596 0.53666 0.5521 0.53666 1.5289 0 0.79147-0.23937 1.2471-0.23551 0.45172-0.69109 0.70267-0.45172 0.25095-0.98838 0.25095-0.86097 0-1.3938-0.5521-0.5289-0.5521-0.5289-1.5907zm0.71426 0q0 0.78761 0.34361 1.1814 0.34361 0.38994 0.86483 0.38994 0.51735 0 0.86097-0.39381 0.34361-0.39381 0.34361-1.2007 0-0.76059-0.34748-1.1505-0.34361-0.39381-0.85711-0.39381-0.52121 0-0.86483 0.38994-0.34361 0.38994-0.34361 1.1776z"/><path style="" d="m4.4412 6.0204q0-1.1389 0.63318-1.6872 0.52894-0.45558 1.2895-0.45558 0.84552 0 1.3822 0.55596 0.53666 0.5521 0.53666 1.5289 0 0.79147-0.23937 1.2471-0.23551 0.45172-0.69109 0.70267-0.45172 0.25095-0.98838 0.25095-0.86097 0-1.3938-0.5521-0.5289-0.5521-0.5289-1.5907zm0.71426 0q0 0.78761 0.34361 1.1814 0.34361 0.38994 0.86483 0.38994 0.51735 0 0.86097-0.39381 0.34361-0.39381 0.34361-1.2007 0-0.76059-0.34748-1.1505-0.34361-0.39381-0.85711-0.39381-0.52121 0-0.86483 0.38994-0.34361 0.38994-0.34361 1.1776z"/><path style="" d="m9.0962 9.6419v-5.6716h0.63318v0.5328q0.22393-0.31273 0.50577-0.46716 0.28184-0.15829 0.68337-0.15829 0.52507 0 0.9266 0.27026t0.60615 0.76445q0.20462 0.49033 0.20462 1.0772 0 0.62932-0.22779 1.1351-0.22393 0.50191-0.65634 0.77217-0.42855 0.2664-0.90344 0.2664-0.34748 0-0.62546-0.14671-0.2743-0.1469-0.4519-0.3708v1.9961h-0.69495zm0.6293-3.5983q0 0.79147 0.32045 1.1698 0.32045 0.37836 0.77603 0.37836 0.4633 0 0.79147-0.38994 0.33203-0.39381 0.33203-1.2162 0-0.78375-0.32431-1.1737-0.32045-0.38994-0.76831-0.38994-0.444 0-0.78761 0.41697-0.33975 0.41311-0.33975 1.2046z"/><path style="" d="m16.168 7.5647q-0.38608 0.32817-0.74514 0.4633-0.3552 0.13513-0.76445 0.13513-0.67565 0-1.0386-0.32817-0.36292-0.33203-0.36292-0.84552 0-0.30115 0.13513-0.54824 0.13899-0.25095 0.35906-0.40153 0.22393-0.15057 0.50191-0.22779 0.20462-0.054052 0.61773-0.10424 0.84166-0.10038 1.2393-0.23937 0.0039-0.14285 0.0039-0.18146 0-0.42469-0.1969-0.59843-0.2664-0.23551-0.79147-0.23551-0.49033 0-0.72584 0.17374-0.23165 0.16988-0.34361 0.60615l-0.67951-0.09266q0.09266-0.43627 0.30501-0.70267 0.21235-0.27026 0.61387-0.41311 0.40153-0.14671 0.93046-0.14671 0.52507 0 0.85325 0.12355 0.32817 0.12355 0.4826 0.31273 0.15443 0.18532 0.21621 0.47102 0.03475 0.1776 0.03475 0.6409v0.9266q0 0.96907 0.04247 1.2277 0.04633 0.25482 0.1776 0.49033h-0.72584q-0.1081-0.21621-0.13899-0.50577zm-0.05791-1.5521q-0.37836 0.15443-1.1351 0.26254-0.42855 0.061774-0.60615 0.13899-0.1776 0.077217-0.27412 0.22779-0.09652 0.14671-0.09652 0.32817 0 0.27798 0.20848 0.4633 0.21235 0.18532 0.61774 0.18532 0.40153 0 0.71426-0.17374 0.31273-0.1776 0.45944-0.4826 0.11196-0.23551 0.11196-0.69495v-0.25482z"/><path style="" d="m19.809 6.8466 0.68723-0.1081q0.05791 0.41311 0.32045 0.63318 0.2664 0.22007 0.74128 0.22007 0.47874 0 0.71039-0.19304 0.23165-0.1969 0.23165-0.45944 0-0.23551-0.20462-0.37064-0.143-0.0926-0.71-0.2355-0.765-0.193-1.062-0.332-0.293-0.1429-0.448-0.39-0.15-0.2509-0.15-0.5521 0-0.27412 0.12355-0.50577 0.12741-0.23551 0.34362-0.38994 0.16216-0.11969 0.44014-0.20076 0.28184-0.084938 0.60229-0.084938 0.4826 0 0.84552 0.13899 0.36678 0.13899 0.54052 0.37836 0.17374 0.23551 0.23937 0.63318l-0.67951 0.09266q-0.046-0.3166-0.27-0.4942-0.22-0.1776-0.625-0.1776-0.47874 0-0.68337 0.15829-0.20462 0.15829-0.20462 0.37064 0 0.13513 0.08494 0.24323 0.08494 0.11196 0.2664 0.18532 0.10424 0.038608 0.61387 0.1776 0.73742 0.1969 1.027 0.32431 0.29342 0.12355 0.45944 0.36292t0.16602 0.59457q0 0.34748-0.20462 0.65634-0.20076 0.30501-0.58299 0.47488-0.38222 0.16602-0.86483 0.16602-0.79919 0-1.22-0.33203-0.41697-0.33203-0.5328-0.98451z"/><path style="" d="m25.558 7.4489 0.10038 0.61387q-0.29342 0.061773-0.52507 0.061773-0.37836 0-0.58685-0.11969t-0.29342-0.31273q-0.08494-0.1969-0.08494-0.82236v-2.359h-0.50963v-0.54052h0.50963v-1.0154l0.69109-0.41697v1.4324h0.69881v0.54052h-0.69881v2.3976q0 0.29728 0.03475 0.38222 0.03861 0.084938 0.11969 0.13513 0.08494 0.050191 0.23937 0.050191 0.11582 0 0.30501-0.027026z"/><path style="" d="m26.231 8.0705v-4.1002h0.62546v0.6216q0.23937-0.43627 0.44014-0.57527 0.20462-0.13899 0.44786-0.13899 0.35134 0 0.71426 0.22393l-0.23937 0.64476q-0.25482-0.15057-0.50963-0.15057-0.22779 0-0.40925 0.13899-0.18146 0.13513-0.25868 0.37836-0.11582 0.37064-0.11582 0.81078v2.1466h-0.69495z"/><path style="" d="m31.559 8.0705v-0.60229q-0.47874 0.69495-1.3011 0.69495-0.36292 0-0.67951-0.13899-0.313-0.139-0.467-0.3475-0.151-0.2124-0.212-0.5174-0.043-0.2046-0.043-0.6486v-2.5404h0.69495v2.274q0 0.54438 0.04247 0.73356 0.06563 0.27412 0.27798 0.43241 0.21235 0.15443 0.52507 0.15443 0.31273 0 0.58685-0.15829 0.27412-0.16216 0.38608-0.43627 0.11582-0.27798 0.11582-0.80305v-2.1968h0.69495v4.1002h-0.6216z"/><path style="" d="m33.272 8.0705v-5.66h0.69495v3.2277l1.6447-1.6679h0.89958l-1.5675 1.5212 1.7258 2.579h-0.85711l-1.3552-2.0964-0.49033 0.47102v1.6254h-0.69495z"/><path style="" d="m38.739 7.4489 0.10038 0.61387q-0.29342 0.061773-0.52508 0.061773-0.37836 0-0.58685-0.11969t-0.29342-0.31273q-0.08494-0.1969-0.08494-0.82236v-2.359h-0.50963v-0.54052h0.50963v-1.0154l0.69109-0.41697v1.4324h0.69881v0.54052h-0.69881v2.3976q0 0.29728 0.03475 0.38222 0.03861 0.084938 0.11969 0.13513 0.08494 0.050191 0.23937 0.050191 0.11583 0 0.30501-0.027026z"/><path style="" d="m42.107 8.0705v-0.60229q-0.47874 0.69495-1.3011 0.69495-0.36292 0-0.67951-0.13899-0.313-0.139-0.467-0.3475-0.151-0.2124-0.212-0.5174-0.043-0.2046-0.043-0.6486v-2.5404h0.69495v2.274q0 0.54438 0.04247 0.73356 0.06563 0.27412 0.27798 0.43241 0.21235 0.15443 0.52507 0.15443 0.31273 0 0.58685-0.15829 0.27412-0.16216 0.38608-0.43627 0.11582-0.27798 0.11582-0.80305v-2.1968h0.69495v4.1002h-0.6216z"/><path style="" d="m46.503 8.0705v-0.60229q-0.47874 0.69495-1.3011 0.69495-0.36292 0-0.67951-0.13899-0.312-0.139-0.467-0.3475-0.15-0.2124-0.212-0.5174-0.043-0.2046-0.043-0.6486v-2.5404h0.69495v2.274q0 0.54438 0.04247 0.73356 0.06564 0.27412 0.27798 0.43241 0.21235 0.15443 0.52507 0.15443 0.31273 0 0.58685-0.15829 0.27412-0.16216 0.38608-0.43627 0.11582-0.27798 0.11582-0.80305v-2.1968h0.69495v4.1002h-0.6216z"/><path style="" d="m48.204 8.0705v-4.1002h0.62546v0.6216q0.23937-0.43627 0.44014-0.57527 0.20462-0.13899 0.44786-0.13899 0.35134 0 0.71426 0.22393l-0.238 0.6447q-0.255-0.1506-0.51-0.1506-0.22779 0-0.40925 0.13899-0.18146 0.13513-0.25868 0.37836-0.11583 0.37064-0.11583 0.81078v2.1466h-0.69495z"/><path style="" d="m50.849 3.2097v-0.79919h0.69495v0.79919h-0.69495zm0 4.8608v-4.1002h0.69495v4.1002h-0.69495z"/><path style="" d="m52.33 6.3717v-0.69881h2.135v0.69881h-2.135z"/><path style="" d="m-16.399 11.288v-0.80692h0.69495v0.80692h-0.69495zm-0.88027 6.4437 0.13127-0.59071q0.20848 0.05405 0.32817 0.05405 0.21235 0 0.31659-0.14285 0.10424-0.13899 0.10424-0.70267v-4.3087h0.69495v4.3241q0 0.75672-0.1969 1.054-0.25096 0.38608-0.83394 0.38608-0.28184 0-0.54438-0.07336z"/><path style="" d="m-11.964 15.635q-0.38608 0.32817-0.74514 0.4633-0.3552 0.13513-0.76445 0.13513-0.67565 0-1.0386-0.32817-0.36292-0.33203-0.36292-0.84552 0-0.30115 0.13513-0.54824 0.13899-0.25095 0.35906-0.40153 0.22393-0.15057 0.50191-0.22779 0.20462-0.05405 0.61773-0.10424 0.84166-0.10038 1.2393-0.23937 0.0039-0.14285 0.0039-0.18146 0-0.42469-0.1969-0.59843-0.2664-0.23551-0.79147-0.23551-0.49033 0-0.72584 0.17374-0.23165 0.16988-0.34362 0.60615l-0.67951-0.09266q0.09266-0.43628 0.30501-0.70267 0.21235-0.27026 0.61387-0.41311 0.40153-0.14671 0.93046-0.14671 0.52507 0 0.85324 0.12355t0.4826 0.31273q0.15443 0.18532 0.21621 0.47102 0.03475 0.1776 0.03475 0.6409v0.9266q0 0.96907 0.04247 1.2277 0.04633 0.25482 0.1776 0.49033h-0.72584q-0.1081-0.21621-0.13899-0.50577zm-0.05791-1.5521q-0.37836 0.15443-1.1351 0.26254-0.42855 0.06177-0.60615 0.13899t-0.27412 0.22779q-0.09652 0.14671-0.09652 0.32817 0 0.27798 0.20848 0.4633 0.21235 0.18532 0.61773 0.18532 0.40153 0 0.71426-0.17374 0.31273-0.1776 0.45944-0.4826 0.11196-0.23551 0.11196-0.69495v-0.25482z"/><path style="" d="m-8.0414 11.28v-0.79919h0.69495v0.79919h-0.69495zm0 4.8608v-4.1002h0.69495v4.1002h-0.69495z"/><path style="" d="m-6.2899 16.141v-4.1002h0.62546v0.58299q0.45172-0.67565 1.305-0.67565 0.37064 0 0.67951 0.13513 0.31273 0.13127 0.46716 0.34748t0.21621 0.51349q0.038608 0.19304 0.038608 0.67565v2.5211h-0.69495v-2.4941q0-0.42469-0.081078-0.63318-0.081078-0.21235-0.28956-0.33589-0.20462-0.12741-0.4826-0.12741-0.444 0-0.76831 0.28184-0.32045 0.28184-0.32045 1.0695v2.2393h-0.69495z"/><path style="" d="m-0.7547 16.141-1.5598-4.1002h0.73356l0.88027 2.4555q0.14285 0.39767 0.26254 0.82622 0.09266-0.32431 0.25868-0.77989l0.91116-2.5018h0.71426l-1.5521 4.1002h-0.64862z"/><path style="" d="m4.8667 14.821 0.71812 0.0888q-0.16988 0.62932-0.62932 0.97679-0.45944 0.34748-1.1737 0.34748-0.89958 0-1.4285-0.5521-0.5251-0.556-0.5251-1.556 0-1.0347 0.5328-1.6061t1.3822-0.5714q0.82236 0 1.3436 0.55982 0.52121 0.55982 0.52121 1.5752 0 0.06177-0.00386 0.18532h-3.0578q0.038608 0.67565 0.38222 1.0347 0.34361 0.35906 0.85711 0.35906 0.38222 0 0.65248-0.20076t0.42855-0.6409zm-2.2818-1.1235h2.2895q-0.0463-0.518-0.2625-0.777-0.3321-0.401-0.861-0.401-0.47874 0-0.80692 0.32045-0.32431 0.32045-0.35906 0.85711z"/><path style="" d="m6.1782 14.917 0.68723-0.1081q0.057913 0.41311 0.32045 0.63318 0.2664 0.22007 0.74128 0.22007 0.47874 0 0.71039-0.19304 0.23165-0.1969 0.23165-0.45944 0-0.23551-0.20462-0.37064-0.1429-0.093-0.7105-0.235-0.7644-0.193-1.0617-0.332-0.2934-0.143-0.4478-0.39-0.1506-0.251-0.1506-0.552 0-0.27412 0.12355-0.50577 0.12741-0.23551 0.34361-0.38994 0.16216-0.11969 0.44014-0.20076 0.28184-0.08494 0.60229-0.08494 0.4826 0 0.84552 0.13899 0.36678 0.13899 0.54052 0.37836 0.17374 0.23551 0.23937 0.63318l-0.67951 0.09266q-0.0463-0.317-0.2703-0.495-0.22-0.177-0.6254-0.177-0.47874 0-0.68337 0.15829-0.20462 0.1583-0.20462 0.37064 0 0.13513 0.084938 0.24323 0.084938 0.11196 0.2664 0.18532 0.10424 0.03861 0.61387 0.1776 0.73742 0.1969 1.027 0.32431 0.29342 0.12355 0.45944 0.36292t0.16602 0.59457q0 0.34748-0.20462 0.65634-0.20076 0.30501-0.58299 0.47488-0.38222 0.16602-0.86483 0.16602-0.79919 0-1.22-0.33203-0.417-0.332-0.5328-0.985z"/><path style="" d="m11.927 15.519 0.10038 0.61387q-0.29342 0.06177-0.52507 0.06177-0.37836 0-0.58685-0.11969-0.20848-0.11969-0.29342-0.31273-0.08494-0.1969-0.08494-0.82236v-2.359h-0.50963v-0.54052h0.50963v-1.0154l0.69109-0.41697v1.4324h0.69881v0.54052h-0.69881v2.3976q0 0.29728 0.03475 0.38222 0.03861 0.08494 0.11969 0.13513 0.08494 0.05019 0.23937 0.05019 0.11582 0 0.30501-0.02703z"/><path style="" d="m15.415 14.821 0.71812 0.0888q-0.16988 0.62932-0.62932 0.97679-0.45944 0.34748-1.1737 0.34748-0.89958 0-1.4285-0.5521-0.52508-0.55596-0.52508-1.5559 0-1.0347 0.5328-1.6061t1.3822-0.5714q0.82236 0 1.3436 0.55982 0.52121 0.55982 0.52121 1.5752 0 0.06177-0.0039 0.18532h-3.0578q0.03861 0.67565 0.38222 1.0347 0.34362 0.35906 0.85711 0.35906 0.38222 0 0.65248-0.20076t0.42855-0.6409zm-2.2818-1.1235h2.2895q-0.04633-0.51735-0.26254-0.77603-0.33203-0.40153-0.86097-0.40153-0.47874 0-0.80692 0.32045-0.32431 0.32045-0.35906 0.85711z"/><path style="" d="m19.811 14.821 0.71812 0.0888q-0.16988 0.62932-0.62932 0.97679-0.45944 0.34748-1.1737 0.34748-0.89958 0-1.4285-0.5521-0.52507-0.55596-0.52507-1.5559 0-1.0347 0.5328-1.6061t1.3822-0.5714q0.82236 0 1.3436 0.55982 0.52121 0.55982 0.52121 1.5752 0 0.06177-0.0039 0.18532h-3.0578q0.03861 0.67565 0.38222 1.0347 0.34361 0.35906 0.85711 0.35906 0.38222 0 0.65248-0.20076t0.42855-0.6409zm-2.2818-1.1235h2.2895q-0.04633-0.51735-0.26254-0.77603-0.33203-0.40153-0.86097-0.40153-0.47874 0-0.80692 0.32045-0.32431 0.32045-0.35906 0.85711z"/><path style="" d="m21.393 16.141v-4.1002h0.62546v0.6216q0.23937-0.43628 0.44014-0.57526 0.20462-0.13899 0.44786-0.13899 0.35134 0 0.71426 0.22393l-0.23937 0.64476q-0.25482-0.15057-0.50963-0.15057-0.22779 0-0.40925 0.13899-0.18146 0.13513-0.25868 0.37836-0.11582 0.37064-0.11582 0.81078v2.1466h-0.69495z"/><path style="" d="m24.037 11.28v-0.79919h0.69495v0.79919h-0.69495zm0 4.8608v-4.1002h0.69495v4.1002h-0.69495z"/><path style="" d="m25.789 16.141v-4.1002h0.6216v0.57526q0.19304-0.30115 0.51349-0.4826 0.32045-0.18532 0.7297-0.18532 0.45558 0 0.74514 0.18918 0.29342 0.18918 0.41311 0.52894 0.48647-0.71812 1.2664-0.71812 0.61001 0 0.93818 0.33975 0.32817 0.33589 0.32817 1.0386v2.8146h-0.69109v-2.5829q0-0.41697-0.06949-0.59843-0.06563-0.18532-0.24323-0.29728t-0.41697-0.11196q-0.43241 0-0.71812 0.28956-0.2857 0.2857-0.2857 0.91888v2.3821h-0.69495v-2.664q0-0.4633-0.16988-0.69495t-0.55596-0.23165q-0.29342 0-0.54438 0.15443-0.24709 0.15443-0.35906 0.45172-0.11196 0.29728-0.11196 0.85711v2.1273h-0.69495z"/><path style="" d="m32.379 11.28v-0.79919h0.69495v0.79919h-0.69495zm0 4.8608v-4.1002h0.69495v4.1002h-0.69495z"/><path style="" d="m33.853 14.917 0.68723-0.1081q0.05791 0.41311 0.32045 0.63318 0.2664 0.22007 0.74128 0.22007 0.47874 0 0.71039-0.19304 0.23165-0.1969 0.23165-0.45944 0-0.23551-0.20462-0.37064-0.14285-0.09266-0.71039-0.23551-0.76445-0.19304-1.0617-0.33203-0.29342-0.14285-0.44786-0.38994-0.15057-0.25096-0.15057-0.5521 0-0.27412 0.12355-0.50577 0.12741-0.23551 0.34362-0.38994 0.16216-0.11969 0.44014-0.20076 0.28184-0.08494 0.60229-0.08494 0.4826 0 0.84552 0.13899 0.36678 0.13899 0.54052 0.37836 0.17374 0.23551 0.23937 0.63318l-0.67951 0.09266q-0.04633-0.31659-0.27026-0.49419-0.22007-0.1776-0.62546-0.1776-0.47874 0-0.68337 0.15829-0.20462 0.1583-0.20462 0.37064 0 0.13513 0.08494 0.24323 0.08494 0.11196 0.2664 0.18532 0.10424 0.03861 0.61387 0.1776 0.73742 0.1969 1.027 0.32431 0.29342 0.12355 0.45944 0.36292t0.16602 0.59457q0 0.34748-0.20462 0.65634-0.20076 0.30501-0.58299 0.47488-0.38222 0.16602-0.86483 0.16602-0.79919 0-1.22-0.33203-0.41697-0.33203-0.5328-0.98451z"/><path style="" d="m38.25 16.141v-3.5597h-0.61387v-0.54052h0.61387v-0.43628q0-0.41311 0.07336-0.61387 0.10038-0.27026 0.35134-0.43628 0.25482-0.16988 0.71039-0.16988 0.29342 0 0.64862 0.0695l-0.10424 0.60615q-0.21621-0.03861-0.40925-0.03861-0.31659 0-0.44786 0.13513t-0.13127 0.50577v0.37836h0.79919v0.54052h-0.79919v3.5597h-0.69109z"/><path style="" d="m40.024 14.091q0-1.1389 0.63318-1.6872 0.52894-0.45558 1.2895-0.45558 0.84552 0 1.3822 0.55596 0.53666 0.5521 0.53666 1.5289 0 0.79147-0.23937 1.2471-0.23551 0.45172-0.69109 0.70267-0.45172 0.25096-0.98838 0.25096-0.86097 0-1.3938-0.5521-0.52894-0.5521-0.52894-1.5907zm0.71426 0q0 0.78761 0.34362 1.1814 0.34362 0.38994 0.86483 0.38994 0.51735 0 0.86097-0.39381 0.34361-0.39381 0.34361-1.2007 0-0.76059-0.34748-1.1505-0.34362-0.3938-0.85711-0.3938-0.52121 0-0.86483 0.38994t-0.34362 1.1776z"/><path style="" d="m44.679 16.141v-4.1002h0.62546v0.58299q0.45172-0.67565 1.305-0.67565 0.37064 0 0.67951 0.13513 0.31273 0.13127 0.46716 0.34748t0.21621 0.51349q0.03861 0.19304 0.03861 0.67565v2.5211h-0.69495v-2.4941q0-0.42469-0.08108-0.63318-0.08108-0.21235-0.28956-0.33589-0.20462-0.12741-0.4826-0.12741-0.444 0-0.76831 0.28184-0.32045 0.28184-0.32045 1.0695v2.2393h-0.69495z"/><path style="" d="m51.735 16.141v-0.51735q-0.38994 0.61001-1.1467 0.61001-0.49033 0-0.90344-0.27026-0.40925-0.27026-0.63704-0.75286-0.22393-0.48646-0.22393-1.1158 0-0.61387 0.20462-1.1119 0.20462-0.50191 0.61387-0.76831t0.91502-0.2664q0.37064 0 0.6602 0.15829 0.28956 0.15443 0.47102 0.40539v-2.0308h0.69109v5.66h-0.64476zm-2.1968-2.0462q0 0.78761 0.33203 1.1776 0.33203 0.38994 0.78375 0.38994 0.45558 0 0.77217-0.37064 0.32045-0.3745 0.32045-1.1389 0-0.84166-0.32431-1.2355-0.32431-0.3938-0.79919-0.3938-0.4633 0-0.77603 0.37836-0.30887 0.37836-0.30887 1.193z"/><path style="" d="m53.475 11.28v-0.79919h0.69495v0.79919h-0.69495zm0 4.8608v-4.1002h0.69495v4.1002h-0.69495z"/><path style="" d="m57.887 16.141v-0.51735q-0.38994 0.61001-1.1467 0.61001-0.49033 0-0.90344-0.27026-0.40925-0.27026-0.63704-0.75286-0.22393-0.48646-0.22393-1.1158 0-0.61387 0.20462-1.1119 0.20462-0.50191 0.61387-0.76831t0.91502-0.2664q0.37064 0 0.6602 0.15829 0.28956 0.15443 0.47102 0.40539v-2.0308h0.69109v5.66h-0.64476zm-2.1968-2.0462q0 0.78761 0.33203 1.1776 0.33203 0.38994 0.78375 0.38994 0.45558 0 0.77217-0.37064 0.32045-0.3745 0.32045-1.1389 0-0.84166-0.32431-1.2355-0.32431-0.3938-0.79919-0.3938-0.4633 0-0.77603 0.37836-0.30887 0.37836-0.30887 1.193z"/></g><path d="m5.6619 84.976h77.93v-52.131h-77.93v52.131z" fill-rule="evenodd" fill="#254aa5"/><g fill="#fff200" fill-rule="evenodd"><path d="m45.2 77.384h2.2451l-1.8102-1.3595 0.7007-2.1526-1.8025 1.3215-1.8023-1.3215 0.7098 2.1526-1.8258 1.3595h2.2433l0.675 2.0988 0.6669-2.0988z"/><path d="m45.296 42.647h2.2464l-1.8057-1.3564 0.6974-2.156-1.7992 1.3283-1.8057-1.3283 0.7138 2.156-1.8278 1.3564h2.2385l0.6812 2.0985 0.6611-2.0985z"/><path d="m53.895 44.949h2.2479l-1.8116-1.3564 0.7033-2.1495-1.8017 1.3246-1.8091-1.3246 0.7132 2.1495-1.8261 1.3564h2.2433l0.6787 2.1047 0.6621-2.1047z"/><path d="m53.895 75.095h2.2479l-1.8116-1.3598 0.7033-2.1461-1.8017 1.3215-1.8091-1.3215 0.7132 2.1461-1.8261 1.3598h2.2433l0.6787 2.0985 0.6621-2.0985z"/><path d="m60.279 68.717h2.2416l-1.8053-1.3563 0.7035-2.1592-1.802 1.3278-1.8056-1.3278 0.7086 2.1592-1.8266 1.3563h2.2419l0.6817 2.0954 0.6622-2.0954z"/><path d="m60.279 51.248h2.2416l-1.8053-1.3563 0.7035-2.1532-1.802 1.3218-1.8056-1.3218 0.7086 2.1532-1.8266 1.3563h2.2419l0.6817 2.0982 0.6622-2.0982z"/><path d="m62.671 60.113h2.2465l-1.8085-1.3563 0.699-2.1558-1.7992 1.3244-1.8039-1.3244 0.7118 2.1558-1.8233 1.3563h2.2354l0.68 2.1019 0.6622-2.1019z"/><path d="m36.429 75.072h2.2479l-1.8116-1.3595 0.7038-2.1495-1.8023 1.3277-1.8037-1.3277 0.7113 2.1495-1.8227 1.3595h2.2371l0.678 2.1016 0.6622-2.1016z"/><path d="m30.222 68.691h2.2485l-1.8122-1.3564 0.7038-2.1526-1.8022 1.3244-1.8026-1.3244 0.7104 2.1526-1.8264 1.3564h2.2399l0.6787 2.0954 0.6621-2.0954z"/><path d="m27.92 60.09h2.2416l-1.8039-1.3569 0.7007-2.1521-1.8011 1.3244-1.8017-1.3244 0.7064 2.1521-1.8244 1.3569h2.2385l0.6812 2.0982 0.6627-2.0982z"/><path d="m30.222 51.225h2.2485l-1.8122-1.3564 0.7038-2.1529-1.8022 1.3252-1.8026-1.3252 0.7104 2.1529-1.8264 1.3564h2.2399l0.6787 2.0985 0.6621-2.0985z"/><path d="m36.518 44.93h2.2464l-1.8102-1.3598 0.7008-2.1492-1.7992 1.3249-1.8057-1.3249 0.7132 2.1492-1.826 1.3598h2.2399l0.6786 2.1019 0.6622-2.1019z"/></g><g fill-rule="evenodd"><path d="m127 74.589c6.0803-0.5635 11.686-2.5526 16.529-5.5987 0.006-0.0063 0.1338-0.0947 0.3345-0.2225-6.1229 8.736-15.996 14.853-27.568 15.925-10.129 0.9323-19.672-2.166-27.008-7.9506 5.5686-1.1055 10.464-3.9019 14.189-7.7891 6.766 4.2679 14.942 6.4276 23.523 5.6356" fill="#287ac8"/><path d="m150.4 50.639c-0.003 0-0.003 0.0032-0.003 0.0032 0-0.0182 0.003-0.0338 0.003-0.0519v0.0487" fill="#fff"/><path d="m150.43 50.213c-0.009 0.1191-0.0519 0.6398-0.061 0.7464-0.57 6.5251-2.8788 12.63-6.5134 17.809-0.2007 0.1278-0.3289 0.2162-0.3345 0.2225-4.8439 3.0461-10.449 5.0352-16.529 5.5987-8.581 0.792-16.757-1.3677-23.523-5.6356 4.1859-4.3684 6.9001-10.108 7.4301-16.395 0.1307-1.5662 0.1338-3.1683-0.0155-4.7948-0.2373-2.5438-0.8161-4.9748-1.6969-7.2408-1.5899-4.1369-4.1672-7.75-7.4111-10.592l0.0575 0.0522c12.475 7.2255 27.94 10.336 43.184 8.0235-1.3833-1.3071-3.4608-2.4188-5.1514-3.2962 2.0594 0.5364 9.3002 3.4274 9.4037 3.6468 0 0 0.006 0.0031 0.006 0.0057h-0.006s1.6906 5.4711 1.1611 11.85" fill="#231f20"/><path d="m149.77 51.072c-4.8251 3.2661-8.8039 5.2402-17.205 6.02-6.3881 0.5907-12.554-0.4541-18.071-2.7845 0.1401-1.5415 0.1525-3.1195 0.003-4.7186-0.7189-7.753-4.8433-14.36-10.759-18.503 15.298 8.7976 29.207 9.9731 40.987 8.1759 0.7826-0.1216 3.2045-0.5394 4.3225-0.8379 1.3706 6.897 0.8923 11.46 0.722 12.648" fill="#fff"/></g><g transform="matrix(1 0 0 -1 118.23 22.141)" fill="#231f20"><path style="" d="m0.62546 0v-5.66h4.0925v0.66793h-3.3435v1.7335h3.1311v0.66406h-3.1311v1.9266h3.4748v0.66793h-4.2238z"/><path style="" d="m8.602-1.3204 0.71812 0.088799q-0.16988 0.62932-0.62932 0.97679-0.45944 0.34748-1.1737 0.34748-0.89958 0-1.4285-0.5521-0.52507-0.55596-0.52507-1.5559 0-1.0347 0.5328-1.6061t1.3822-0.5714q0.82236 0 1.3436 0.55982 0.52121 0.55982 0.52121 1.5752 0 0.061773-0.00386 0.18532h-3.0578q0.038608 0.67565 0.38222 1.0347 0.34361 0.35906 0.85711 0.35906 0.38222 0 0.65248-0.20076t0.42855-0.6409zm-2.2818-1.1235h2.2895q-0.04633-0.51735-0.26254-0.77603-0.33203-0.40153-0.86097-0.40153-0.47874 0-0.80692 0.32045-0.32431 0.32045-0.35906 0.85711z"/><path style="" d="m9.9135-1.2239 0.68723-0.1081q0.05791 0.41311 0.32045 0.63318 0.2664 0.22007 0.74128 0.22007 0.47874 0 0.71039-0.19304 0.23165-0.1969 0.23165-0.45944 0-0.23551-0.20462-0.37064-0.14285-0.09266-0.71039-0.23551-0.76445-0.19304-1.0617-0.33203-0.29342-0.14285-0.44786-0.38994-0.15057-0.25095-0.15057-0.5521 0-0.27412 0.12355-0.50577 0.12741-0.23551 0.34362-0.38994 0.16216-0.11969 0.44014-0.20076 0.28184-0.084938 0.60229-0.084938 0.4826 0 0.84552 0.13899 0.36678 0.13899 0.54052 0.37836 0.17374 0.23551 0.23937 0.63318l-0.67951 0.09266q-0.04633-0.31659-0.27026-0.49419-0.22007-0.1776-0.62546-0.1776-0.47874 0-0.68337 0.15829-0.20462 0.15829-0.20462 0.37064 0 0.13513 0.08494 0.24323 0.08494 0.11196 0.2664 0.18532 0.10424 0.038608 0.61387 0.1776 0.73742 0.1969 1.027 0.32431 0.29342 0.12355 0.45944 0.36292t0.16602 0.59457q0 0.34748-0.20462 0.65634-0.20076 0.30501-0.58299 0.47488-0.38222 0.16602-0.86483 0.16602-0.79919 0-1.22-0.33203-0.417-0.3321-0.5325-0.9846z"/><path style="" d="m15.662-0.6216 0.10038 0.61387q-0.29342 0.061773-0.52507 0.061773-0.37836 0-0.58685-0.11969t-0.29342-0.31273q-0.08494-0.1969-0.08494-0.82236v-2.359h-0.50963v-0.54052h0.50963v-1.0154l0.69109-0.41697v1.4324h0.69881v0.54052h-0.69881v2.3976q0 0.29728 0.03475 0.38222 0.03861 0.084938 0.11969 0.13513 0.08494 0.050191 0.23937 0.050191 0.11582 0 0.30501-0.027026z"/><path style="" d="m16.347-4.8608v-0.79919h0.69495v0.79919h-0.69495zm0 4.8608v-4.1002h0.69495v4.1002h-0.69495z"/><path style="" d="m-14.225 7.416 0.10038 0.61387q-0.29342 0.061773-0.52508 0.061773-0.37836 0-0.58685-0.11969t-0.29342-0.31273q-0.08494-0.1969-0.08494-0.82236v-2.359h-0.50963v-0.54052h0.50963v-1.0154l0.69109-0.41697v1.4324h0.69881v0.54052h-0.69881v2.3976q0 0.29728 0.03475 0.38222 0.03861 0.084938 0.11969 0.13513 0.08494 0.050191 0.23937 0.050191 0.11583 0 0.30501-0.027026z"/><path style="" d="m-10.857 8.0376v-0.60229q-0.47874 0.69495-1.3011 0.69495-0.36292 0-0.67951-0.13899-0.31273-0.13899-0.46716-0.34748-0.15057-0.21235-0.21235-0.51735-0.04247-0.20462-0.04247-0.64862v-2.5404h0.69495v2.274q0 0.54438 0.04247 0.73356 0.06563 0.27412 0.27798 0.43241 0.21235 0.15443 0.52507 0.15443 0.31273 0 0.58685-0.15829 0.27412-0.16216 0.38608-0.43627 0.11582-0.27798 0.11582-0.80305v-2.1968h0.69495v4.1002h-0.6216z"/><path style="" d="m-9.1636 8.0376v-5.66h0.69495v5.66h-0.69495z"/><path style="" d="m-4.586 6.7172 0.71812 0.088799q-0.16988 0.62932-0.62932 0.97679-0.45944 0.34748-1.1737 0.34748-0.89958 0-1.4285-0.5521-0.52507-0.55596-0.52507-1.5559 0-1.0347 0.5328-1.6061t1.3822-0.5714q0.82236 0 1.3436 0.55982 0.52121 0.55982 0.52121 1.5752 0 0.061773-0.00386 0.18532h-3.0578q0.038608 0.67565 0.38222 1.0347 0.34361 0.35906 0.85711 0.35906 0.38222 0 0.65248-0.20076t0.42855-0.6409zm-2.2818-1.1235h2.2895q-0.04633-0.51735-0.26254-0.77603-0.33203-0.40153-0.86097-0.40153-0.47874 0-0.80692 0.32045-0.32431 0.32045-0.35906 0.85711z"/><path style="" d="m-1.8576 8.0376-1.5598-4.1002h0.73356l0.88027 2.4555q0.14285 0.39767 0.26254 0.82622 0.09266-0.32431 0.25868-0.77989l0.91116-2.5018h0.71426l-1.5521 4.1002h-0.64862z"/><path style="" d="m0.96086 3.1768v-0.79919h0.69495v0.79919h-0.69495zm0 4.8608v-4.1002h0.69495v4.1002h-0.69495z"/><path style="" d="m2.7162 8.0376v-5.66h0.69495v3.2277l1.6447-1.6679h0.89958l-1.5675 1.5212 1.7258 2.579h-0.85711l-1.3552-2.0964-0.49033 0.47102v1.6254h-0.69495z"/><path style="" d="m9.353 8.0376v-0.60229q-0.47874 0.69495-1.3011 0.69495-0.36292 0-0.67951-0.13899-0.3127-0.139-0.4672-0.3475-0.1505-0.2124-0.2123-0.5174-0.0425-0.2046-0.0425-0.6486v-2.5404h0.69495v2.274q0 0.54438 0.042469 0.73356 0.065634 0.27412 0.27798 0.43241 0.21235 0.15443 0.52507 0.15443 0.31273 0 0.58685-0.15829 0.2741-0.1621 0.386-0.4362 0.1158-0.278 0.1158-0.8031v-2.1968h0.69495v4.1002h-0.6216z"/><path style="" d="m13.26 8.0376v-5.66h0.69495v2.0308q0.48647-0.56368 1.2277-0.56368 0.45558 0 0.79147 0.18146 0.33589 0.1776 0.47874 0.49419 0.14671 0.31659 0.14671 0.91888v2.5983h-0.69495v-2.5983q0-0.52121-0.22779-0.75672-0.22393-0.23937-0.63704-0.23937-0.30887 0-0.58299 0.16216-0.27 0.1583-0.386 0.4324t-0.116 0.7568v2.2431h-0.69495z"/><path style="" d="m20.463 6.7172 0.71812 0.088799q-0.16988 0.62932-0.62932 0.97679-0.45944 0.34748-1.1737 0.34748-0.89958 0-1.4285-0.5521-0.52508-0.55596-0.52508-1.5559 0-1.0347 0.5328-1.6061t1.3822-0.5714q0.82236 0 1.3436 0.55982 0.52121 0.55982 0.52121 1.5752 0 0.061773-0.0039 0.18532h-3.0578q0.03861 0.67565 0.38222 1.0347 0.34361 0.35906 0.85711 0.35906 0.38222 0 0.65248-0.20076t0.42855-0.6409zm-2.2818-1.1235h2.2895q-0.045-0.5174-0.261-0.776-0.332-0.4016-0.861-0.4016-0.47874 0-0.80692 0.32045-0.32431 0.32045-0.35906 0.85711z"/><path style="" d="m24.728 7.5318q-0.38608 0.32817-0.74514 0.4633-0.3552 0.13513-0.76445 0.13513-0.67565 0-1.0386-0.32817-0.36292-0.33203-0.36292-0.84552 0-0.30115 0.13513-0.54824 0.13899-0.25095 0.35906-0.40153 0.22393-0.15057 0.50191-0.22779 0.20462-0.054052 0.61773-0.10424 0.84166-0.10038 1.2393-0.23937 0.0039-0.14285 0.0039-0.18146 0-0.42469-0.1969-0.59843-0.2664-0.23551-0.79147-0.23551-0.49033 0-0.72584 0.17374-0.23165 0.16988-0.34362 0.60615l-0.67951-0.09266q0.09266-0.43627 0.30501-0.70267 0.21235-0.27026 0.61387-0.41311 0.40153-0.14671 0.93046-0.14671 0.52507 0 0.85324 0.12355t0.4826 0.31273q0.15443 0.18532 0.21621 0.47102 0.03475 0.1776 0.03475 0.6409v0.9266q0 0.96907 0.04247 1.2277 0.04633 0.25482 0.1776 0.49033h-0.72584q-0.107-0.216-0.138-0.5056zm-0.05791-1.5521q-0.37836 0.15443-1.1351 0.26254-0.42855 0.061774-0.60615 0.13899-0.1776 0.077217-0.27412 0.22779-0.09652 0.14671-0.09652 0.32817 0 0.27798 0.20849 0.4633 0.21235 0.18532 0.61773 0.18532 0.40153 0 0.71426-0.17374 0.31273-0.1776 0.45944-0.4826 0.11196-0.23551 0.11196-0.69495v-0.25482z"/><path style="" d="m26.453 8.0376v-5.66h0.69495v3.2277l1.6447-1.6679h0.89958l-1.5675 1.5212 1.7258 2.579h-0.85711l-1.3552-2.0964-0.49033 0.47102v1.6254h-0.69495z"/><path style="" d="m30.125 6.8137 0.68723-0.1081q0.05791 0.41311 0.32045 0.63318 0.2664 0.22007 0.74128 0.22007 0.47874 0 0.71039-0.19304 0.23165-0.1969 0.23165-0.45944 0-0.23551-0.20462-0.37064-0.143-0.0926-0.71-0.2355-0.765-0.193-1.062-0.332-0.293-0.1429-0.448-0.39-0.15-0.2509-0.15-0.5521 0-0.27412 0.12355-0.50577 0.12741-0.23551 0.34361-0.38994 0.16216-0.11969 0.44014-0.20076 0.28184-0.084938 0.60229-0.084938 0.4826 0 0.84552 0.13899 0.36678 0.13899 0.54052 0.37836 0.17374 0.23551 0.23937 0.63318l-0.67951 0.09266q-0.046-0.3166-0.27-0.4942-0.22-0.1776-0.626-0.1776-0.47874 0-0.68337 0.15829-0.20462 0.15829-0.20462 0.37064 0 0.13513 0.08494 0.24323 0.08494 0.11196 0.2664 0.18532 0.10424 0.038608 0.61387 0.1776 0.73742 0.1969 1.027 0.32431 0.29342 0.12355 0.45944 0.36292t0.16602 0.59457q0 0.34748-0.20462 0.65634-0.20076 0.30501-0.58299 0.47488-0.38222 0.16602-0.86483 0.16602-0.79919 0-1.22-0.33203-0.41697-0.33203-0.5328-0.98451z"/></g></g></svg>
