<!-- Created with Inkscape (http://www.inkscape.org/) -->
<svg xmlns:rdf="http://www.w3.org/1999/02/22-rdf-syntax-ns#" xmlns="http://www.w3.org/2000/svg" xml:space="preserve" height="113.39" viewBox="0 0 194.88187 113.38587" width="194.88" version="1.1" xmlns:cc="http://creativecommons.org/ns#" xmlns:dc="http://purl.org/dc/elements/1.1/"><metadata><rdf:RDF><cc:Work rdf:about=""><dc:format>image/svg+xml</dc:format><dc:type rdf:resource="http://purl.org/dc/dcmitype/StillImage"/><dc:title/></cc:Work></rdf:RDF></metadata><g transform="matrix(1.25 0 0 -1.25 0 113.39)"><g transform="matrix(1 0 0 -1 16.203 22.1)" fill="#231f20"><path style="" d="m0.62546 0v-5.66h4.0925v0.66793h-3.3435v1.7335h3.1311v0.66406h-3.1311v1.9266h3.4748v0.66793h-4.2238z"/><path style="" d="m8.4823 0v-0.60229q-0.47874 0.69495-1.3011 0.69495-0.36292 0-0.67951-0.13899-0.3127-0.13899-0.4671-0.34748-0.1506-0.21234-0.2124-0.51735-0.0425-0.20464-0.0425-0.64864v-2.5404h0.69495v2.274q0 0.54438 0.042469 0.73356 0.065634 0.27412 0.27798 0.43241 0.21235 0.15443 0.52507 0.15443 0.31273 0 0.58685-0.15829 0.27412-0.16216 0.38608-0.43627 0.11583-0.27798 0.11583-0.80305v-2.1968h0.69495v4.1002h-0.6216z"/><path style="" d="m10.184 0v-4.1002h0.62546v0.6216q0.23937-0.43627 0.44014-0.57527 0.20462-0.13899 0.44786-0.13899 0.35134 0 0.71426 0.22393l-0.23937 0.64476q-0.25482-0.15057-0.50963-0.15057-0.22779 0-0.40925 0.13899-0.18146 0.13513-0.25868 0.37836-0.11582 0.37064-0.11582 0.81078v2.1466h-0.69495z"/><path style="" d="m12.566-2.0501q0-1.1389 0.63318-1.6872 0.52894-0.45558 1.2895-0.45558 0.84552 0 1.3822 0.55596 0.53666 0.5521 0.53666 1.5289 0 0.79147-0.23937 1.2471-0.23551 0.45172-0.69109 0.70267-0.45172 0.25095-0.98838 0.25095-0.86097 0-1.3938-0.5521-0.529-0.5521-0.529-1.5907zm0.71426 0q0 0.78761 0.34362 1.1814 0.34361 0.38994 0.86483 0.38994 0.51735 0 0.86097-0.39381t0.34362-1.2007q0-0.76059-0.34748-1.1505-0.34362-0.39381-0.85711-0.39381-0.52121 0-0.86483 0.38994t-0.34362 1.1776z"/><path style="" d="m17.221 1.5714v-5.6716h0.63318v0.5328q0.22393-0.31273 0.50577-0.46716 0.28184-0.15829 0.68337-0.15829 0.52507 0 0.9266 0.27026t0.60615 0.76445q0.20462 0.49033 0.20462 1.0772 0 0.62932-0.22779 1.1351-0.22393 0.50191-0.65634 0.77217-0.42855 0.2664-0.90344 0.2664-0.34748 0-0.62546-0.14671-0.27412-0.14671-0.45172-0.37064v1.9961h-0.69495zm0.62932-3.5983q0 0.79147 0.32045 1.1698 0.32045 0.37836 0.77603 0.37836 0.4633 0 0.79147-0.38994 0.33203-0.39381 0.33203-1.2162 0-0.78375-0.32431-1.1737-0.32045-0.38994-0.76831-0.38994-0.444 0-0.78761 0.41697-0.33975 0.41311-0.33975 1.2046z"/><path style="" d="m24.424-1.3204 0.71812 0.088799q-0.16988 0.62932-0.62932 0.97679-0.45944 0.34748-1.1737 0.34748-0.89958 0-1.4285-0.5521-0.52507-0.55596-0.52507-1.5559 0-1.0347 0.5328-1.6061t1.3822-0.5714q0.82236 0 1.3436 0.55982 0.52121 0.55982 0.52121 1.5752 0 0.061773-0.0039 0.18532h-3.0578q0.03861 0.67565 0.38222 1.0347 0.34362 0.35906 0.85711 0.35906 0.38222 0 0.65248-0.20076t0.42855-0.6409zm-2.2818-1.1235h2.2895q-0.04633-0.51735-0.26254-0.77603-0.33203-0.40153-0.86097-0.40153-0.47874 0-0.80692 0.32045-0.32431 0.32045-0.35906 0.85711z"/><path style="" d="m28.689-0.50577q-0.38608 0.32817-0.74514 0.4633-0.3552 0.13513-0.76445 0.13513-0.67565 0-1.0386-0.32817-0.36292-0.33203-0.36292-0.84552 0-0.30115 0.13513-0.54824 0.13899-0.25095 0.35906-0.40153 0.22393-0.15057 0.50191-0.22779 0.20462-0.054052 0.61774-0.10424 0.84166-0.10038 1.2393-0.23937 0.0039-0.14285 0.0039-0.18146 0-0.42469-0.1969-0.59843-0.2664-0.23551-0.79147-0.23551-0.49033 0-0.72584 0.17374-0.23165 0.16988-0.34362 0.60615l-0.67951-0.09266q0.09266-0.43627 0.30501-0.70267 0.21235-0.27026 0.61387-0.41311 0.40153-0.14671 0.93046-0.14671 0.52507 0 0.85325 0.12355 0.32817 0.12355 0.4826 0.31273 0.15443 0.18532 0.21621 0.47102 0.03475 0.1776 0.03475 0.6409v0.9266q0 0.96907 0.04247 1.2277 0.048 0.25499 0.179 0.4905h-0.72584q-0.1081-0.21621-0.13899-0.50577zm-0.05791-1.5521q-0.37836 0.15443-1.1351 0.26254-0.42855 0.061773-0.60615 0.13899t-0.27412 0.22779q-0.09652 0.14671-0.09652 0.32817 0 0.27798 0.20848 0.4633 0.21235 0.18532 0.61774 0.18532 0.40153 0 0.71426-0.17374 0.31273-0.1776 0.45944-0.4826 0.11196-0.23551 0.11196-0.69495v-0.25482z"/><path style="" d="m30.41 0v-4.1002h0.62546v0.58299q0.45172-0.67565 1.305-0.67565 0.37064 0 0.67951 0.13513 0.31273 0.13127 0.46716 0.34748t0.21621 0.51349q0.03861 0.19304 0.03861 0.67565v2.5211h-0.69495v-2.4941q0-0.42469-0.08108-0.63318-0.08108-0.21235-0.28956-0.33589-0.20462-0.12741-0.4826-0.12741-0.444 0-0.76831 0.28184-0.32045 0.28184-0.32045 1.0695v2.2393h-0.69495z"/><path style="" d="m40.807-5.66h0.749v3.2701q0 0.85325-0.19304 1.3552-0.19304 0.50191-0.69881 0.8185-0.50191 0.31273-1.3204 0.31273-0.79533 0-1.3011-0.27412t-0.72198-0.79147q-0.21621-0.52121-0.21621-1.4208v-3.2701h0.749v3.2663q0 0.73742 0.13513 1.0888 0.13899 0.34748 0.47102 0.53666 0.33589 0.18918 0.8185 0.18918 0.82622 0 1.1776-0.3745 0.35134-0.3745 0.35134-1.4401v-3.2663z"/><path style="" d="m42.713 0v-4.1002h0.62546v0.58299q0.45172-0.67565 1.305-0.67565 0.37064 0 0.67951 0.13513 0.31273 0.13127 0.46716 0.34748t0.21621 0.51349q0.03861 0.19304 0.03861 0.67565v2.5211h-0.69495v-2.4941q0-0.42469-0.08108-0.63318-0.08108-0.21235-0.28956-0.33589-0.20462-0.12741-0.4826-0.12741-0.444 0-0.76831 0.28184-0.32045 0.28184-0.32045 1.0695v2.2393h-0.69495z"/><path style="" d="m47.113-4.8608v-0.79919h0.69495v0.79919h-0.69495zm0 4.8608v-4.1002h0.69495v4.1002h-0.69495z"/><path style="" d="m48.606-2.0501q0-1.1389 0.63318-1.6872 0.52894-0.45558 1.2895-0.45558 0.84552 0 1.3822 0.55596 0.53666 0.5521 0.53666 1.5289 0 0.79147-0.23937 1.2471-0.23551 0.45172-0.69109 0.70267-0.45172 0.25095-0.98838 0.25095-0.86097 0-1.3938-0.5521-0.529-0.5521-0.529-1.5907zm0.71426 0q0 0.78761 0.34361 1.1814 0.34362 0.38994 0.86483 0.38994 0.51735 0 0.86097-0.39381 0.34361-0.39381 0.34361-1.2007 0-0.76059-0.34748-1.1505-0.34362-0.39381-0.85711-0.39381-0.52121 0-0.86483 0.38994-0.34361 0.38994-0.34361 1.1776z"/><path style="" d="m53.261 0v-4.1002h0.62546v0.58299q0.45172-0.67565 1.305-0.67565 0.37064 0 0.67951 0.13513 0.31273 0.13127 0.46716 0.34748t0.21621 0.51349q0.03861 0.19304 0.03861 0.67565v2.5211h-0.69495v-2.4941q0-0.42469-0.08108-0.63318-0.08108-0.21235-0.28956-0.33589-0.20462-0.12741-0.4826-0.12741-0.444 0-0.76831 0.28184-0.32045 0.28184-0.32045 1.0695v2.2393h-0.69495z"/><path style="" d="m-5.9628 8.0705v-5.66h4.0925v0.66793h-3.3435v1.7335h3.1311v0.66406h-3.1311v1.9266h3.4748v0.66793h-4.2238z"/><path style="" d="m1.894 8.0705v-0.60229q-0.47874 0.69495-1.3011 0.69495-0.36292 0-0.67951-0.13899-0.31271-0.139-0.46715-0.3475-0.15057-0.2124-0.21234-0.5174-0.04247-0.2046-0.04247-0.6486v-2.5404h0.69495v2.274q0 0.54438 0.042469 0.73356 0.065634 0.27412 0.27798 0.43241 0.21235 0.15443 0.52507 0.15443 0.31273 0 0.58685-0.15829 0.2741-0.1621 0.386-0.4362 0.1159-0.278 0.1159-0.8031v-2.1968h0.69495v4.1002h-0.6216z"/><path style="" d="m3.5955 8.0705v-4.1002h0.62546v0.6216q0.2393-0.4363 0.44-0.5753 0.2047-0.139 0.4479-0.139 0.35134 0 0.71426 0.22393l-0.2394 0.6448q-0.2548-0.1506-0.5096-0.1506-0.22779 0-0.40925 0.13899-0.1816 0.1352-0.2588 0.3784-0.1158 0.3706-0.1158 0.8108v2.1466h-0.69495z"/><path style="" d="m5.9775 6.0204q0-1.1389 0.63318-1.6872 0.52894-0.45558 1.2895-0.45558 0.84552 0 1.3822 0.55596 0.53666 0.5521 0.53666 1.5289 0 0.79147-0.23937 1.2471-0.23551 0.45172-0.69109 0.70267-0.45172 0.25095-0.98838 0.25095-0.86097 0-1.3938-0.5521-0.52894-0.5521-0.52894-1.5907zm0.71426 0q0 0.78761 0.34361 1.1814 0.34361 0.38994 0.86483 0.38994 0.51735 0 0.86097-0.39381 0.34361-0.39381 0.34361-1.2007 0-0.76059-0.34748-1.1505-0.34361-0.39381-0.85711-0.39381-0.52121 0-0.86483 0.38994-0.34361 0.38994-0.34361 1.1776z"/><path style="" d="m10.632 9.6419v-5.6716h0.63318v0.5328q0.22393-0.31273 0.50577-0.46716 0.28184-0.15829 0.68337-0.15829 0.52507 0 0.9266 0.27026t0.60615 0.76445q0.20462 0.49033 0.20462 1.0772 0 0.62932-0.22779 1.1351-0.22393 0.50191-0.65634 0.77217-0.42855 0.2664-0.90344 0.2664-0.34748 0-0.62546-0.14671-0.27412-0.14671-0.45172-0.37064v1.9961h-0.69495zm0.62932-3.5983q0 0.79147 0.32045 1.1698 0.32045 0.37836 0.77603 0.37836 0.4633 0 0.79147-0.38994 0.33203-0.39381 0.33203-1.2162 0-0.78375-0.32431-1.1737-0.32045-0.38994-0.76831-0.38994-0.444 0-0.78761 0.41697-0.33975 0.41311-0.33975 1.2046z"/><path style="" d="m17.836 6.7501 0.71812 0.088799q-0.16988 0.62932-0.62932 0.97679-0.45944 0.34748-1.1737 0.34748-0.89958 0-1.4285-0.5521-0.52507-0.55596-0.52507-1.5559 0-1.0347 0.5328-1.6061t1.3822-0.5714q0.82236 0 1.3436 0.55982 0.52121 0.55982 0.52121 1.5752 0 0.061773-0.0039 0.18532h-3.0578q0.03861 0.67565 0.38222 1.0347 0.34362 0.35906 0.85711 0.35906 0.38222 0 0.65248-0.20076t0.42855-0.6409zm-2.2818-1.1235h2.2895q-0.047-0.5174-0.263-0.776-0.332-0.4016-0.861-0.4016-0.47874 0-0.80692 0.32045-0.32431 0.32045-0.35906 0.85711z"/><path style="" d="m22.101 7.5647q-0.38608 0.32817-0.74514 0.4633-0.3552 0.13513-0.76445 0.13513-0.67565 0-1.0386-0.32817-0.36292-0.33203-0.36292-0.84552 0-0.30115 0.13513-0.54824 0.13899-0.25095 0.35906-0.40153 0.22393-0.15057 0.50191-0.22779 0.20462-0.054052 0.61773-0.10424 0.84166-0.10038 1.2393-0.23937 0.0039-0.14285 0.0039-0.18146 0-0.42469-0.1969-0.59843-0.2664-0.23551-0.79147-0.23551-0.49033 0-0.72584 0.17374-0.23165 0.16988-0.34361 0.60615l-0.67951-0.09266q0.09266-0.43627 0.30501-0.70267 0.21235-0.27026 0.61387-0.41311 0.40153-0.14671 0.93046-0.14671 0.52507 0 0.85325 0.12355 0.32817 0.12355 0.4826 0.31273 0.15443 0.18532 0.21621 0.47102 0.03475 0.1776 0.03475 0.6409v0.9266q0 0.96907 0.04247 1.2277 0.04633 0.25482 0.1776 0.49033h-0.72584q-0.1081-0.21621-0.13899-0.50577zm-0.05791-1.5521q-0.37836 0.15443-1.1351 0.26254-0.42855 0.061774-0.60615 0.13899-0.1776 0.077217-0.27412 0.22779-0.09652 0.14671-0.09652 0.32817 0 0.27798 0.20848 0.4633 0.21235 0.18532 0.61774 0.18532 0.40153 0 0.71426-0.17374 0.31273-0.1776 0.45944-0.4826 0.11196-0.23551 0.11196-0.69495v-0.25482z"/><path style="" d="m23.821 8.0705v-4.1002h0.62546v0.58299q0.45172-0.67565 1.305-0.67565 0.37064 0 0.67951 0.13513 0.31273 0.13127 0.46716 0.34748t0.21621 0.51349q0.03861 0.19304 0.03861 0.67565v2.5211h-0.69495v-2.4941q0-0.42469-0.08108-0.63318-0.08108-0.21235-0.28956-0.33589-0.20462-0.12741-0.4826-0.12741-0.444 0-0.76831 0.28184-0.32045 0.28184-0.32045 1.0695v2.2393h-0.69495z"/><path style="" d="m30.25 6.252 0.70653-0.061773q0.05019 0.42469 0.23165 0.69881 0.18532 0.27026 0.5714 0.44014 0.38608 0.16602 0.86869 0.16602 0.42855 0 0.75672-0.12741t0.48647-0.34748q0.16216-0.22393 0.16216-0.48647 0-0.2664-0.15443-0.4633-0.155-0.2008-0.511-0.3359-0.227-0.0888-1.007-0.2741-0.78-0.1892-1.093-0.3552-0.405-0.2124-0.606-0.5251-0.197-0.3166-0.197-0.7065 0-0.42855 0.24323-0.79919 0.24323-0.3745 0.7104-0.56754 0.46716-0.19304 1.0386-0.19304 0.62932 0 1.1081 0.20462 0.4826 0.20076 0.74128 0.59457t0.27798 0.89185l-0.71812 0.054052q-0.059-0.5368-0.394-0.8109-0.332-0.2741-0.985-0.2741-0.67951 0-0.99224 0.25095-0.30887 0.24709-0.30887 0.59843 0 0.30501 0.22007 0.50191 0.21621 0.1969 1.1274 0.40539 0.91502 0.20462 1.2548 0.35906 0.49419 0.22779 0.7297 0.57913 0.23551 0.34748 0.23551 0.80305 0 0.45172-0.25868 0.85325-0.25868 0.39767-0.74514 0.6216-0.4826 0.22007-1.0888 0.22007-0.76831 0-1.2895-0.22393-0.517-0.224-0.814-0.6719-0.294-0.4517-0.309-1.0193z"/><path style="" d="m37.207 7.4489 0.10038 0.61387q-0.29342 0.061773-0.52507 0.061773-0.37836 0-0.58685-0.11969-0.20848-0.11969-0.29342-0.31273-0.08494-0.1969-0.08494-0.82236v-2.359h-0.50963v-0.54052h0.50963v-1.0154l0.69109-0.41697v1.4324h0.69881v0.54052h-0.69881v2.3976q0 0.29728 0.03475 0.38222 0.03861 0.084938 0.11969 0.13513 0.08494 0.050191 0.23937 0.050191 0.11582 0 0.30501-0.027026z"/><path style="" d="m37.88 8.0705v-4.1002h0.62546v0.6216q0.23937-0.43627 0.44014-0.57527 0.20462-0.13899 0.44786-0.13899 0.35134 0 0.71426 0.22393l-0.23937 0.64476q-0.25482-0.15057-0.50963-0.15057-0.22779 0-0.40925 0.13899-0.18146 0.13513-0.25868 0.37836-0.11583 0.37064-0.11583 0.81078v2.1466h-0.69495z"/><path style="" d="m43.208 8.0705v-0.60229q-0.47874 0.69495-1.3011 0.69495-0.36292 0-0.67951-0.13899-0.312-0.139-0.467-0.3475-0.15-0.2124-0.212-0.5174-0.042-0.2046-0.042-0.6486v-2.5404h0.69495v2.274q0 0.54438 0.04247 0.73356 0.06563 0.27412 0.27798 0.43241 0.21235 0.15443 0.52508 0.15443t0.58685-0.15829q0.27412-0.16216 0.38608-0.43627 0.11582-0.27798 0.11582-0.80305v-2.1968h0.69495v4.1002h-0.6216z"/><path style="" d="m47.593 6.5686 0.68337 0.088799q-0.11196 0.70653-0.57526 1.1081-0.45944 0.39767-1.1312 0.39767-0.84166 0-1.3552-0.54824-0.50963-0.5521-0.50963-1.5791 0-0.66406 0.22007-1.1621 0.22007-0.49805 0.66793-0.74514 0.45172-0.25095 0.98065-0.25095 0.66792 0 1.0926 0.33975 0.42469 0.33589 0.54438 0.95749l-0.675 0.104q-0.097-0.4131-0.344-0.6216-0.243-0.2085-0.59-0.2085-0.52507 0-0.85325 0.37836-0.32817 0.3745-0.32817 1.1891 0 0.82622 0.31659 1.2007 0.31659 0.3745 0.82622 0.3745 0.40925 0 0.68337-0.25095t0.34748-0.77217z"/><path style="" d="m50.388 7.4489 0.10038 0.61387q-0.29342 0.061773-0.52507 0.061773-0.37836 0-0.58685-0.11969-0.20848-0.11969-0.29342-0.31273-0.08494-0.1969-0.08494-0.82236v-2.359h-0.50963v-0.54052h0.50963v-1.0154l0.69109-0.41697v1.4324h0.69881v0.54052h-0.69881v2.3976q0 0.29728 0.03475 0.38222 0.03861 0.084938 0.11969 0.13513 0.08494 0.050191 0.23937 0.050191 0.11582 0 0.30501-0.027026z"/><path style="" d="m53.756 8.0705v-0.60229q-0.47874 0.69495-1.3011 0.69495-0.36292 0-0.67951-0.13899-0.312-0.139-0.467-0.3475-0.15-0.2124-0.212-0.5174-0.043-0.2046-0.043-0.6486v-2.5404h0.69495v2.274q0 0.54438 0.04247 0.73356 0.06563 0.27412 0.27798 0.43241 0.21235 0.15443 0.52507 0.15443 0.31273 0 0.58685-0.15829 0.27412-0.16216 0.38608-0.43627 0.11583-0.27798 0.11583-0.80305v-2.1968h0.69495v4.1002h-0.6216z"/><path style="" d="m55.457 8.0705v-4.1002h0.62546v0.6216q0.23937-0.43627 0.44014-0.57527 0.20462-0.13899 0.44786-0.13899 0.35134 0 0.71426 0.22393l-0.23937 0.64476q-0.25482-0.15057-0.50963-0.15057-0.22779 0-0.40925 0.13899-0.18146 0.13513-0.25868 0.37836-0.11583 0.37064-0.11583 0.81078v2.1466h-0.69495z"/><path style="" d="m60.774 7.5647q-0.38608 0.32817-0.74514 0.4633-0.3552 0.13513-0.76445 0.13513-0.67565 0-1.0386-0.32817-0.36292-0.33203-0.36292-0.84552 0-0.30115 0.13513-0.54824 0.13899-0.25095 0.35906-0.40153 0.22393-0.15057 0.50191-0.22779 0.20462-0.054052 0.61774-0.10424 0.84166-0.10038 1.2393-0.23937 0.0039-0.14285 0.0039-0.18146 0-0.42469-0.1969-0.59843-0.2664-0.23551-0.79147-0.23551-0.49033 0-0.72584 0.17374-0.23165 0.16988-0.34362 0.60615l-0.67951-0.09266q0.09266-0.43627 0.30501-0.70267 0.21235-0.27026 0.61387-0.41311 0.40153-0.14671 0.93046-0.14671 0.52507 0 0.85325 0.12355 0.32817 0.12355 0.4826 0.31273 0.15443 0.18532 0.21621 0.47102 0.03475 0.1776 0.03475 0.6409v0.9266q0 0.96907 0.04247 1.2277 0.04633 0.25482 0.1776 0.49033h-0.72584q-0.1081-0.21621-0.13899-0.50577zm-0.05791-1.5521q-0.37836 0.15443-1.1351 0.26254-0.42855 0.061774-0.60615 0.13899-0.1776 0.077217-0.27412 0.22779-0.09652 0.14671-0.09652 0.32817 0 0.27798 0.20848 0.4633 0.21235 0.18532 0.61774 0.18532 0.40153 0 0.71426-0.17374 0.31273-0.1776 0.45944-0.4826 0.11196-0.23551 0.11196-0.69495v-0.25482z"/><path style="" d="m62.479 8.0705v-5.66h0.69495v5.66h-0.69495z"/><path style="" d="m-7.347 15.635q-0.38608 0.32817-0.74514 0.4633-0.3552 0.13513-0.76445 0.13513-0.67565 0-1.0386-0.32817-0.36292-0.33203-0.36292-0.84552 0-0.30114 0.13513-0.54824 0.13899-0.25096 0.35906-0.40153 0.22393-0.15057 0.50191-0.22779 0.20462-0.05405 0.61773-0.10424 0.84166-0.10038 1.2393-0.23937 0.00386-0.14285 0.00386-0.18146 0-0.42469-0.1969-0.59843-0.2664-0.23551-0.79147-0.23551-0.49033 0-0.72584 0.17374-0.23165 0.16988-0.34361 0.60615l-0.67951-0.09266q0.09266-0.43628 0.30501-0.70267 0.21235-0.27026 0.61387-0.41311 0.40153-0.14671 0.93046-0.14671 0.52507 0 0.85325 0.12355 0.32817 0.12355 0.4826 0.31273 0.15443 0.18532 0.21621 0.47102 0.034747 0.1776 0.034747 0.6409v0.9266q0 0.96907 0.042469 1.2277 0.04633 0.25482 0.1776 0.49033h-0.72584q-0.1081-0.21621-0.13899-0.50577zm-0.057913-1.5521q-0.37836 0.15443-1.1351 0.26254-0.42855 0.06177-0.60615 0.13899t-0.27412 0.22779q-0.096521 0.14671-0.096521 0.32817 0 0.27798 0.20849 0.4633 0.21235 0.18532 0.61773 0.18532 0.40153 0 0.71426-0.17374 0.31273-0.1776 0.45944-0.4826 0.11196-0.23551 0.11196-0.69495v-0.25482z"/><path style="" d="m-5.6263 16.141v-4.1002h0.62546v0.58299q0.45172-0.67565 1.305-0.67565 0.37064 0 0.67951 0.13513 0.31273 0.13127 0.46716 0.34748t0.21621 0.51349q0.038608 0.19304 0.038608 0.67565v2.5211h-0.69495v-2.4941q0-0.42469-0.081078-0.63318-0.081078-0.21235-0.28956-0.33589-0.20462-0.12741-0.4826-0.12741-0.444 0-0.76831 0.28184-0.32045 0.28184-0.32045 1.0695v2.2393h-0.69495z"/><path style="" d="m1.4301 16.141v-0.51735q-0.38994 0.61001-1.1467 0.61001-0.49033 0-0.90344-0.27026-0.40925-0.27026-0.63704-0.75286-0.22393-0.48647-0.22393-1.1158 0-0.61387 0.20462-1.1119 0.20462-0.50191 0.61387-0.76831t0.91502-0.2664q0.37064 0 0.6602 0.1583 0.28956 0.15443 0.47102 0.40539v-2.0308h0.69109v5.66h-0.64476zm-2.1968-2.0462q0 0.78761 0.33203 1.1776 0.33203 0.38994 0.78375 0.38994 0.45558 0 0.77217-0.37064 0.32045-0.3745 0.32045-1.1389 0-0.84166-0.32431-1.2355-0.32431-0.39381-0.79919-0.39381-0.4633 0-0.77603 0.37836-0.30887 0.37836-0.30887 1.193z"/><path style="" d="m5.5806 16.141v-5.66h0.749v5.66h-0.749z"/><path style="" d="m7.5626 16.141v-4.1002h0.62546v0.58299q0.45172-0.67565 1.305-0.67565 0.37064 0 0.67951 0.13513 0.31273 0.13127 0.46716 0.34748t0.21621 0.51349q0.03861 0.19304 0.03861 0.67565v2.5211h-0.69495v-2.4941q0-0.42469-0.08108-0.63318-0.08108-0.21235-0.28956-0.33589-0.20462-0.12741-0.4826-0.12741-0.444 0-0.76831 0.28184-0.32045 0.28184-0.32045 1.0695v2.2393h-0.69495z"/><path style="" d="m13.098 16.141-1.5598-4.1002h0.73356l0.88027 2.4555q0.14285 0.39767 0.26254 0.82622 0.09266-0.32431 0.25868-0.77989l0.91116-2.5018h0.71426l-1.5521 4.1002h-0.64862z"/><path style="" d="m18.719 14.82 0.71812 0.0888q-0.16988 0.62932-0.62932 0.97679-0.45944 0.34748-1.1737 0.34748-0.89958 0-1.4285-0.5521-0.52507-0.55596-0.52507-1.5559 0-1.0347 0.5328-1.6061t1.3822-0.5714q0.82236 0 1.3436 0.55982 0.52121 0.55982 0.52121 1.5752 0 0.06177-0.0039 0.18532h-3.0578q0.03861 0.67565 0.38222 1.0347 0.34362 0.35906 0.85711 0.35906 0.38222 0 0.65248-0.20076t0.42855-0.6409zm-2.2818-1.1235h2.2895q-0.04633-0.51735-0.26254-0.77603-0.33203-0.40153-0.86097-0.40153-0.47874 0-0.80692 0.32045-0.32431 0.32045-0.35906 0.85711z"/><path style="" d="m20.031 14.917 0.68723-0.1081q0.05791 0.41311 0.32045 0.63318 0.2664 0.22007 0.74128 0.22007 0.47874 0 0.7104-0.19304 0.23165-0.1969 0.23165-0.45944 0-0.23551-0.20462-0.37064-0.14285-0.09266-0.71039-0.23551-0.76445-0.19304-1.0617-0.33203-0.29342-0.14285-0.44786-0.38994-0.15057-0.25095-0.15057-0.5521 0-0.27412 0.12355-0.50577 0.12741-0.23551 0.34361-0.38994 0.16216-0.11969 0.44014-0.20076 0.28184-0.08494 0.60229-0.08494 0.4826 0 0.84552 0.13899 0.36678 0.13899 0.54052 0.37836 0.17374 0.23551 0.23937 0.63318l-0.67951 0.09266q-0.04633-0.31659-0.27026-0.49419-0.22007-0.1776-0.62546-0.1776-0.47874 0-0.68337 0.15829-0.20462 0.15829-0.20462 0.37064 0 0.13513 0.08494 0.24323 0.08494 0.11196 0.2664 0.18532 0.10424 0.03861 0.61387 0.1776 0.73742 0.1969 1.027 0.32431 0.29342 0.12355 0.45944 0.36292t0.16602 0.59457q0 0.34748-0.20462 0.65634-0.20076 0.30501-0.58299 0.47488-0.38222 0.16602-0.86483 0.16602-0.79919 0-1.22-0.33203-0.41697-0.33203-0.5328-0.98451z"/><path style="" d="m25.779 15.519 0.10038 0.61387q-0.29342 0.06177-0.52507 0.06177-0.37836 0-0.58685-0.11969-0.20848-0.11969-0.29342-0.31273-0.08494-0.1969-0.08494-0.82236v-2.359h-0.50963v-0.54052h0.50963v-1.0154l0.69109-0.41697v1.4324h0.69881v0.54052h-0.69881v2.3976q0 0.29728 0.03475 0.38222 0.03861 0.08494 0.11969 0.13513 0.08494 0.05019 0.23937 0.05019 0.11582 0 0.30501-0.02703z"/><path style="" d="m26.46 16.141v-4.1002h0.6216v0.57527q0.19304-0.30115 0.51349-0.4826 0.32045-0.18532 0.7297-0.18532 0.45558 0 0.74514 0.18918 0.29342 0.18918 0.41311 0.52894 0.48647-0.71812 1.2664-0.71812 0.61001 0 0.93818 0.33975 0.32817 0.33589 0.32817 1.0386v2.8146h-0.69109v-2.5829q0-0.41697-0.06949-0.59843-0.06563-0.18532-0.24323-0.29728t-0.41697-0.11196q-0.43241 0-0.71812 0.28956-0.2857 0.2857-0.2857 0.91888v2.3821h-0.69495v-2.664q0-0.4633-0.16988-0.69495t-0.55596-0.23165q-0.29342 0-0.54438 0.15443-0.24709 0.15443-0.35906 0.45172-0.11196 0.29728-0.11196 0.85711v2.1273h-0.69495z"/><path style="" d="m35.854 14.82 0.71812 0.0888q-0.16988 0.62932-0.62932 0.97679-0.45944 0.34748-1.1737 0.34748-0.89958 0-1.4285-0.5521-0.52507-0.55596-0.52507-1.5559 0-1.0347 0.5328-1.6061t1.3822-0.5714q0.82236 0 1.3436 0.55982 0.52121 0.55982 0.52121 1.5752 0 0.06177-0.0039 0.18532h-3.0578q0.03861 0.67565 0.38222 1.0347 0.34362 0.35906 0.85711 0.35906 0.38222 0 0.65248-0.20076t0.42855-0.6409zm-2.2818-1.1235h2.2895q-0.04633-0.51735-0.26254-0.77603-0.33203-0.40153-0.86097-0.40153-0.47874 0-0.80692 0.32045-0.32431 0.32045-0.35906 0.85711z"/><path style="" d="m37.443 16.141v-4.1002h0.62546v0.58299q0.45172-0.67565 1.305-0.67565 0.37064 0 0.67951 0.13513 0.31273 0.13127 0.46716 0.34748t0.21621 0.51349q0.03861 0.19304 0.03861 0.67565v2.5211h-0.69495v-2.4941q0-0.42469-0.08108-0.63318-0.08108-0.21235-0.28956-0.33589-0.20462-0.12741-0.4826-0.12741-0.444 0-0.76831 0.28184-0.32045 0.28184-0.32045 1.0695v2.2393h-0.69495z"/><path style="" d="m43.357 15.519 0.10038 0.61387q-0.29342 0.06177-0.52508 0.06177-0.37836 0-0.58685-0.11969t-0.29342-0.31273q-0.08494-0.1969-0.08494-0.82236v-2.359h-0.50963v-0.54052h0.50963v-1.0154l0.69109-0.41697v1.4324h0.69881v0.54052h-0.69881v2.3976q0 0.29728 0.03475 0.38222 0.03861 0.08494 0.11969 0.13513 0.08494 0.05019 0.23937 0.05019 0.11582 0 0.30501-0.02703z"/><path style="" d="m46.363 16.141v-5.66h3.8184v0.66792h-3.0694v1.7528h2.6563v0.66792h-2.6563v2.5713h-0.749z"/><path style="" d="m53.754 16.141v-0.60229q-0.47874 0.69495-1.3011 0.69495-0.36292 0-0.67951-0.13899-0.31273-0.13899-0.46716-0.34748-0.15057-0.21235-0.21235-0.51735-0.04247-0.20462-0.04247-0.64862v-2.5404h0.69495v2.274q0 0.54438 0.04247 0.73356 0.06564 0.27412 0.27798 0.43241 0.21235 0.15443 0.52507 0.15443 0.31273 0 0.58685-0.15829 0.27412-0.16216 0.38608-0.43628 0.11582-0.27798 0.11582-0.80306v-2.1968h0.69495v4.1002h-0.6216z"/><path style="" d="m55.463 16.141v-4.1002h0.62546v0.58299q0.45172-0.67565 1.305-0.67565 0.37064 0 0.67951 0.13513 0.31273 0.13127 0.46716 0.34748t0.21621 0.51349q0.03861 0.19304 0.03861 0.67565v2.5211h-0.69495v-2.4941q0-0.42469-0.08108-0.63318-0.08108-0.21235-0.28956-0.33589-0.20462-0.12741-0.4826-0.12741-0.444 0-0.76831 0.28184-0.32045 0.28184-0.32045 1.0695v2.2393h-0.69495z"/><path style="" d="m62.52 16.141v-0.51735q-0.38994 0.61001-1.1467 0.61001-0.49033 0-0.90344-0.27026-0.40925-0.27026-0.63704-0.75286-0.22393-0.48647-0.22393-1.1158 0-0.61387 0.20462-1.1119 0.20462-0.50191 0.61387-0.76831t0.91502-0.2664q0.37064 0 0.6602 0.1583 0.28956 0.15443 0.47102 0.40539v-2.0308h0.69109v5.66h-0.64476zm-2.1968-2.0462q0 0.78761 0.33203 1.1776 0.33203 0.38994 0.78375 0.38994 0.45558 0 0.77217-0.37064 0.32045-0.3745 0.32045-1.1389 0-0.84166-0.32431-1.2355-0.32431-0.39381-0.79919-0.39381-0.4633 0-0.77603 0.37836-0.30887 0.37836-0.30887 1.193z"/><path style="" d="m63.978 14.917 0.68723-0.1081q0.05791 0.41311 0.32045 0.63318 0.2664 0.22007 0.74128 0.22007 0.47874 0 0.7104-0.19304 0.23165-0.1969 0.23165-0.45944 0-0.23551-0.20462-0.37064-0.14285-0.09266-0.7104-0.23551-0.76445-0.19304-1.0617-0.33203-0.29342-0.14285-0.44786-0.38994-0.15057-0.25095-0.15057-0.5521 0-0.27412 0.12355-0.50577 0.12741-0.23551 0.34362-0.38994 0.16216-0.11969 0.44014-0.20076 0.28184-0.08494 0.60229-0.08494 0.4826 0 0.84552 0.13899 0.36678 0.13899 0.54052 0.37836 0.17374 0.23551 0.23937 0.63318l-0.67951 0.09266q-0.04633-0.31659-0.27026-0.49419-0.22007-0.1776-0.62546-0.1776-0.47874 0-0.68337 0.15829-0.20462 0.15829-0.20462 0.37064 0 0.13513 0.08494 0.24323 0.08494 0.11196 0.2664 0.18532 0.10424 0.03861 0.61387 0.1776 0.73742 0.1969 1.027 0.32431 0.29342 0.12355 0.45944 0.36292t0.16602 0.59457q0 0.34748-0.20462 0.65634-0.20076 0.30501-0.58299 0.47488-0.38222 0.16602-0.86483 0.16602-0.79919 0-1.22-0.33203-0.41697-0.33203-0.5328-0.98451z"/></g><path d="m5.6619 84.911h77.93v-52.13h-77.93v52.13z" fill-rule="evenodd" fill="#254aa5"/><g fill="#fff200" fill-rule="evenodd"><path d="m45.2 77.32h2.2451l-1.8102-1.3595 0.7007-2.1526-1.8025 1.3215-1.8023-1.3215 0.7098 2.1526-1.8258 1.3595h2.2433l0.675 2.0988 0.6669-2.0988z"/><path d="m45.296 42.582h2.2464l-1.8057-1.3563 0.6974-2.1561-1.7992 1.3284-1.8057-1.3284 0.7138 2.1561-1.8278 1.3563h2.2385l0.6812 2.0985 0.6611-2.0985z"/><path d="m53.895 44.884h2.2479l-1.8116-1.3563 0.7033-2.1495-1.8017 1.3246-1.8091-1.3246 0.7132 2.1495-1.8261 1.3563h2.2433l0.6787 2.1048 0.6621-2.1048z"/><path d="m53.895 75.03h2.2479l-1.8116-1.3597 0.7033-2.1462-1.8017 1.3216-1.8091-1.3216 0.7132 2.1462-1.8261 1.3597h2.2433l0.6787 2.0985 0.6621-2.0985z"/><path d="m60.279 68.652h2.2416l-1.8053-1.3564 0.7035-2.1591-1.802 1.3277-1.8056-1.3277 0.7086 2.1591-1.8266 1.3564h2.2419l0.6817 2.0954 0.6622-2.0954z"/><path d="m60.279 51.183h2.2416l-1.8053-1.3564 0.7035-2.1532-1.802 1.3218-1.8056-1.3218 0.7086 2.1532-1.8266 1.3564h2.2419l0.6817 2.0982 0.6622-2.0982z"/><path d="m62.671 60.048h2.2465l-1.8085-1.3564 0.699-2.1557-1.7992 1.3243-1.8039-1.3243 0.7118 2.1557-1.8233 1.3564h2.2354l0.68 2.1019 0.6622-2.1019z"/><path d="m36.429 75.008h2.2479l-1.8116-1.3595 0.7038-2.1495-1.8023 1.3278-1.8037-1.3278 0.7113 2.1495-1.8227 1.3595h2.2371l0.678 2.1016 0.6622-2.1016z"/><path d="m30.222 68.626h2.2485l-1.8122-1.3564 0.7038-2.1526-1.8022 1.3243-1.8026-1.3243 0.7104 2.1526-1.8264 1.3564h2.2399l0.6787 2.0954 0.6621-2.0954z"/><path d="m27.92 60.026h2.2416l-1.8039-1.357 0.7007-2.152-1.8011 1.3243-1.8017-1.3243 0.7064 2.152-1.8244 1.357h2.2385l0.6812 2.0982 0.6627-2.0982z"/><path d="m30.222 51.16h2.2485l-1.8122-1.3563 0.7038-2.153-1.8022 1.3252-1.8026-1.3252 0.7104 2.153-1.8264 1.3563h2.2399l0.6787 2.0985 0.6621-2.0985z"/><path d="m36.518 44.865h2.2464l-1.8102-1.3598 0.7008-2.1492-1.7992 1.3249-1.8057-1.3249 0.7132 2.1492-1.826 1.3598h2.2399l0.6786 2.1019 0.6622-2.1019z"/></g><g fill-rule="evenodd"><path d="m127 74.524c6.0803-0.5636 11.686-2.5526 16.529-5.5988 0.006-0.0062 0.1338-0.0946 0.3345-0.2225-6.1229 8.7361-15.996 14.853-27.568 15.925-10.129 0.9324-19.672-2.1659-27.008-7.9506 5.5686-1.1055 10.464-3.9019 14.189-7.789 6.766 4.2678 14.942 6.4276 23.523 5.6356" fill="#287ac8"/><path d="m150.4 50.575c-0.003 0-0.003 0.0031-0.003 0.0031 0-0.0181 0.003-0.0337 0.003-0.0518v0.0487" fill="#fff"/><path d="m150.43 50.148c-0.009 0.1191-0.0519 0.6398-0.061 0.7464-0.57 6.525-2.8788 12.63-6.5134 17.809-0.2007 0.1279-0.3289 0.2163-0.3345 0.2225-4.8439 3.0462-10.449 5.0352-16.529 5.5988-8.581 0.792-16.757-1.3678-23.523-5.6356 4.1859-4.3685 6.9001-10.108 7.4301-16.395 0.1307-1.5662 0.1338-3.1683-0.0155-4.7949-0.2373-2.5438-0.8161-4.9748-1.6969-7.2408-1.5899-4.1369-4.1672-7.7499-7.4111-10.592l0.0575 0.0522c12.475 7.2255 27.94 10.336 43.184 8.0234-1.3833-1.307-3.4608-2.4188-5.1514-3.2961 2.0594 0.5363 9.3002 3.4274 9.4037 3.6468 0 0 0.006 0.0031 0.006 0.0056h-0.006s1.6906 5.4712 1.1611 11.85" fill="#231f20"/><path d="m149.77 51.007c-4.8251 3.2661-8.8039 5.2401-17.205 6.0199-6.3881 0.5908-12.554-0.4541-18.071-2.7844 0.1401-1.5415 0.1525-3.1196 0.003-4.7186-0.7189-7.753-4.8433-14.36-10.759-18.503 15.298 8.7977 29.207 9.9732 40.987 8.176 0.7826-0.1216 3.2045-0.5394 4.3225-0.8379 1.3706 6.897 0.8923 11.46 0.722 12.648" fill="#fff"/></g><g transform="matrix(1 0 0 -1 111.19 22.076)" fill="#231f20"><path style="" d="m0.73742 0v-5.66h0.749v5.66h-0.749z"/><path style="" d="m2.7194 0v-4.1002h0.62546v0.58299q0.45172-0.67565 1.305-0.67565 0.37064 0 0.67951 0.13513 0.31273 0.13127 0.46716 0.34748t0.21621 0.51349q0.038608 0.19304 0.038608 0.67565v2.5211h-0.69495v-2.4941q0-0.42469-0.081078-0.63318-0.081078-0.21235-0.28956-0.33589-0.20462-0.12741-0.4826-0.12741-0.444 0-0.76831 0.28184-0.32045 0.28184-0.32045 1.0695l-0.0001 2.2393h-0.6949z"/><path style="" d="m8.2546 0-1.5598-4.1002h0.73356l0.88027 2.4555q0.14285 0.39767 0.26254 0.82622 0.09266-0.32431 0.25868-0.77989l0.91116-2.5018h0.71426l-1.5518 4.1002h-0.6486z"/><path style="" d="m13.876-1.3204 0.71812 0.088799q-0.16988 0.62932-0.62932 0.97679-0.45944 0.34748-1.1737 0.34748-0.89958 0-1.4285-0.5521-0.52508-0.55596-0.52508-1.5559 0-1.0347 0.5328-1.6061t1.3822-0.5714q0.82236 0 1.3436 0.55982 0.52121 0.55982 0.52121 1.5752 0 0.061773-0.0039 0.18532h-3.0578q0.03861 0.67565 0.38222 1.0347 0.34361 0.35906 0.85711 0.35906 0.38222 0 0.65248-0.20076t0.42855-0.6409zm-2.2818-1.1235h2.2895q-0.04633-0.51735-0.26254-0.77603-0.33203-0.40153-0.86097-0.40153-0.47874 0-0.80692 0.32045-0.32431 0.32045-0.35906 0.85711z"/><path style="" d="m15.187-1.2239 0.68723-0.1081q0.05791 0.41311 0.32045 0.63318 0.2664 0.22007 0.74128 0.22007 0.47874 0 0.7104-0.19304 0.23165-0.1969 0.23165-0.45944 0-0.23551-0.20462-0.37064-0.14285-0.09266-0.7104-0.23551-0.76445-0.19304-1.0617-0.33203-0.29342-0.14285-0.44786-0.38994-0.15057-0.25095-0.15057-0.5521 0-0.27412 0.12355-0.50577 0.12741-0.23551 0.34362-0.38994 0.16216-0.11969 0.44014-0.20076 0.28184-0.084938 0.60229-0.084938 0.4826 0 0.84552 0.13899 0.36678 0.13899 0.54052 0.37836 0.17374 0.23551 0.23937 0.63318l-0.67951 0.09266q-0.04633-0.31659-0.27026-0.49419-0.22007-0.1776-0.62546-0.1776-0.47874 0-0.68337 0.15829-0.20462 0.15829-0.20462 0.37064 0 0.13513 0.08494 0.24323 0.08494 0.11196 0.2664 0.18532 0.10424 0.038608 0.61387 0.1776 0.73742 0.1969 1.027 0.32431 0.29342 0.12355 0.45944 0.36292t0.16602 0.59457q0 0.34748-0.20462 0.65634-0.20076 0.30501-0.58299 0.47488-0.38222 0.16602-0.86483 0.16602-0.79919 0-1.22-0.33203-0.41697-0.33203-0.5328-0.98451z"/><path style="" d="m20.936-0.6216 0.10038 0.61387q-0.29342 0.061773-0.52507 0.061773-0.37836 0-0.58685-0.11969-0.20848-0.11969-0.29342-0.31273-0.08494-0.1969-0.08494-0.82236v-2.359h-0.50963v-0.54052h0.50963v-1.0154l0.69109-0.41697v1.4324h0.69881v0.54052h-0.69881v2.3976q0 0.29728 0.03475 0.38222 0.03861 0.084938 0.11969 0.13513 0.08494 0.050191 0.23937 0.050191 0.11582 0 0.30501-0.027026z"/><path style="" d="m21.621-4.8608v-0.79919h0.69495v0.79919h-0.69495zm0 4.8608v-4.1002h0.69495v4.1002h-0.69495z"/><path style="" d="m23.372 0v-4.1002h0.62546v0.58299q0.45172-0.67565 1.305-0.67565 0.37064 0 0.67951 0.13513 0.31273 0.13127 0.46716 0.34748t0.21621 0.51349q0.03861 0.19304 0.03861 0.67565v2.5211h-0.69495v-2.4941q0-0.42469-0.08108-0.63318-0.08108-0.21235-0.28956-0.33589-0.20462-0.12741-0.4826-0.12741-0.444 0-0.76831 0.28184-0.32045 0.28184-0.32045 1.0695v2.2393h-0.69495z"/><path style="" d="m27.641 0.33975 0.67565 0.10038q0.04247 0.31273 0.23551 0.45558 0.25868 0.19304 0.70653 0.19304 0.4826 0 0.74514-0.19304t0.3552-0.54052q0.05405-0.21235 0.05019-0.89185-0.456 0.53666-1.136 0.53666-0.845 0-1.308-0.61001-0.464-0.60999-0.464-1.4633 0-0.58685 0.21235-1.081 0.21235-0.49805 0.61387-0.76831 0.40539-0.27026 0.94977-0.27026 0.72584 0 1.1969 0.58685v-0.49419h0.6409v3.5443q0 0.95749-0.1969 1.3552-0.19304 0.40153-0.61773 0.63318-0.42083 0.23165-1.0386 0.23165-0.73356 0-1.1853-0.33203-0.45172-0.32817-0.43628-0.99224zm0.57526-2.4632q0 0.80692 0.32045 1.1776 0.32045 0.37064 0.80306 0.37064 0.47874 0 0.80305-0.36678 0.32431-0.37064 0.32431-1.1583 0-0.75286-0.33589-1.1351-0.33203-0.38222-0.80306-0.38222-0.4633 0-0.78761 0.37836-0.32431 0.3745-0.32431 1.1158z"/><path style="" d="m-6.7256 3.1766v-0.79919h0.69495v0.79919h-0.69495zm0 4.8608v-4.1002h0.69495v4.1002h-0.69495z"/><path style="" d="m-4.9741 8.0374v-4.1002h0.62546v0.58299q0.45172-0.67565 1.305-0.67565 0.37064 0 0.67951 0.13513 0.31273 0.13127 0.46716 0.34748t0.21621 0.51349q0.038608 0.19304 0.038608 0.67565v2.5211h-0.69495v-2.4941q0-0.42469-0.081078-0.63318-0.081078-0.21235-0.28956-0.33589-0.20462-0.12741-0.4826-0.12741-0.444 0-0.76831 0.28184-0.32045 0.28184-0.32045 1.0695v2.2393h-0.69495z"/><path style="" d="m1.5894 9.6165-0.077217-0.65248q0.22779 0.061773 0.39767 0.061773 0.23165 0 0.37064-0.077217t0.22779-0.21621q0.065634-0.10424 0.21235-0.51735 0.019304-0.057913 0.061773-0.16988l-1.5559-4.1079h0.749l0.85325 2.3744q0.166 0.4517 0.2972 0.9498 0.1197-0.4788 0.2857-0.9344l0.87641-2.3899h0.69495l-1.5598 4.1697q-0.2509 0.6757-0.3899 0.9306-0.1853 0.3436-0.4247 0.5019-0.2394 0.1621-0.5714 0.1621-0.20076 0-0.44786-0.084938z"/><path style="" d="m5.3151 5.9873q0-1.1389 0.63318-1.6872 0.52894-0.45558 1.2895-0.45558 0.84552 0 1.3822 0.55596 0.53666 0.5521 0.53666 1.5289 0 0.79147-0.23937 1.2471-0.23551 0.45172-0.69109 0.70267-0.45172 0.25095-0.98838 0.25095-0.86097 0-1.3938-0.5521-0.5289-0.5521-0.5289-1.5907zm0.71426 0q0 0.78761 0.34361 1.1814 0.34361 0.38994 0.86483 0.38994 0.51735 0 0.86097-0.39381 0.34361-0.39381 0.34361-1.2007 0-0.76059-0.34748-1.1505-0.34361-0.39381-0.85711-0.39381-0.52121 0-0.86483 0.38994-0.34361 0.38994-0.34361 1.1776z"/><path style="" d="m12.657 8.0374v-0.60229q-0.47874 0.69495-1.3011 0.69495-0.36292 0-0.67951-0.13899-0.312-0.139-0.467-0.3475-0.15-0.2124-0.2119-0.5174-0.0424-0.2046-0.0424-0.6486v-2.5404h0.69495v2.274q0 0.54438 0.04247 0.73356 0.06564 0.27412 0.27798 0.43241 0.21235 0.15443 0.52507 0.15443 0.31273 0 0.58685-0.15829 0.27412-0.16216 0.38608-0.43627 0.11582-0.27798 0.11582-0.80305v-2.1968h0.69495v4.1002h-0.6216z"/><path style="" d="m14.359 8.0374v-4.1002h0.62546v0.6216q0.23937-0.43627 0.44014-0.57527 0.20462-0.13899 0.44786-0.13899 0.35134 0 0.71426 0.22393l-0.239 0.6447q-0.25482-0.15057-0.50963-0.15057-0.22779 0-0.40925 0.13899-0.18146 0.13513-0.25868 0.37836-0.11582 0.37064-0.11582 0.81078v2.1466h-0.69495z"/><path style="" d="m19.364 8.0374v-3.5597h-0.61387v-0.54052h0.61387v-0.43627q0-0.41311 0.07336-0.61387 0.10038-0.27026 0.35134-0.43628 0.25482-0.16988 0.7104-0.16988 0.29342 0 0.64862 0.069495l-0.105 0.6062q-0.21621-0.038608-0.40925-0.038608-0.31659 0-0.44786 0.13513t-0.13127 0.50577v0.37836h0.79919v0.54052h-0.79919v3.5597h-0.69109z"/><path style="" d="m24.083 8.0374v-0.60229q-0.47874 0.69495-1.3011 0.69495-0.36292 0-0.67951-0.13899-0.312-0.139-0.467-0.3475-0.15-0.2124-0.212-0.5174-0.043-0.2046-0.043-0.6486v-2.5404h0.69495v2.274q0 0.54438 0.04247 0.73356 0.06563 0.27412 0.27798 0.43241 0.21235 0.15443 0.52508 0.15443t0.58685-0.15829q0.27412-0.16216 0.38608-0.43627 0.116-0.2779 0.116-0.803v-2.1968h0.69495v4.1002h-0.6216z"/><path style="" d="m27.309 7.4158 0.10038 0.61387q-0.29342 0.061773-0.52507 0.061773-0.37836 0-0.58685-0.11969-0.208-0.1197-0.293-0.3128-0.085-0.1969-0.085-0.8223v-2.359h-0.50963v-0.54052h0.50963v-1.0154l0.69109-0.41697v1.4324h0.69881v0.54052h-0.69881v2.3976q0 0.29728 0.03475 0.38222 0.03861 0.084938 0.11969 0.13513 0.08494 0.050191 0.23937 0.050191 0.11582 0 0.30501-0.027026z"/><path style="" d="m30.677 8.0374v-0.60229q-0.47874 0.69495-1.3011 0.69495-0.36292 0-0.67951-0.13899-0.312-0.139-0.466-0.3475-0.151-0.2124-0.213-0.5174-0.042-0.2046-0.042-0.6486v-2.5404h0.69495v2.274q0 0.54438 0.04247 0.73356 0.06564 0.27412 0.27798 0.43241 0.21235 0.15443 0.52507 0.15443 0.31273 0 0.58685-0.15829 0.27412-0.16216 0.38608-0.43627 0.11582-0.27798 0.11582-0.80305v-2.1968h0.69495v4.1002h-0.6216z"/><path style="" d="m32.379 8.0374v-4.1002h0.62546v0.6216q0.23937-0.43627 0.44014-0.57527 0.20462-0.13899 0.44786-0.13899 0.35134 0 0.71426 0.22393l-0.23937 0.64476q-0.25482-0.15057-0.50963-0.15057-0.22779 0-0.40925 0.13899-0.18146 0.13513-0.25868 0.37836-0.11582 0.37064-0.11582 0.81078v2.1466h-0.69495z"/><path style="" d="m37.826 6.717 0.71812 0.088799q-0.16988 0.62932-0.62932 0.97679-0.45944 0.34748-1.1737 0.34748-0.89958 0-1.4285-0.5521-0.52508-0.55596-0.52508-1.5559 0-1.0347 0.5328-1.6061t1.3822-0.5714q0.82236 0 1.3436 0.55982 0.52121 0.55982 0.52121 1.5752 0 0.061773-0.0039 0.18532h-3.0578q0.03861 0.67565 0.38222 1.0347 0.34362 0.35906 0.85711 0.35906 0.38222 0 0.65248-0.20076t0.42855-0.6409zm-2.2818-1.1235h2.2895q-0.046-0.5174-0.263-0.776-0.332-0.4016-0.86-0.4016-0.47874 0-0.80692 0.32045-0.32431 0.32045-0.35906 0.85711z"/></g></g></svg>
