<?xml version="1.0" encoding="UTF-8" standalone="no"?>
<!-- Created with Inkscape (http://www.inkscape.org/) -->
<svg id="svg2" xmlns:rdf="http://www.w3.org/1999/02/22-rdf-syntax-ns#" xmlns="http://www.w3.org/2000/svg" height="114.65" width="241.66" version="1.1" xmlns:cc="http://creativecommons.org/ns#" xmlns:dc="http://purl.org/dc/elements/1.1/" viewBox="0 0 241.65761 114.64996">
 <metadata id="metadata4">
  <rdf:RDF>
   <cc:Work rdf:about="">
    <dc:format>image/svg+xml</dc:format>
    <dc:type rdf:resource="http://purl.org/dc/dcmitype/StillImage"/>
    <dc:title/>
   </cc:Work>
  </rdf:RDF>
 </metadata>
 <g id="g6" transform="translate(-36.316197,-392.18084)">
  <g id="g8" transform="matrix(1.25,0,0,-1.25,139.68,451.58)">
   <path id="path10" fill="#143a81" d="M0,0v11.627h-12.22v-11.627h-5.457v28.038h5.457v-11.27h12.22v11.27h5.497v-28.038h-5.497z"/>
  </g>
  <path id="path12" fill="#143a81" d="m152.58,416.53h6.9212v35.048h-6.92v-35.05z"/>
  <g id="g14" transform="matrix(1.25,0,0,-1.25,181.75,423.01)">
   <path id="path16" fill="#143a81" d="M0,0v-22.858h-5.497v22.858h-8.858v5.18h23.213v-5.18h-8.858z"/>
  </g>
  <g id="g18" transform="matrix(1.25,0,0,-1.25,215.06,426.77)">
   <path id="path20" fill="#143a81" d="m0,0c-0.277,1.542-1.542,3.955-5.102,3.955-2.649,0-4.389-1.701-4.389-3.559,0-1.542,0.989-2.769,3.045-3.165l3.915-0.751c5.101-0.989,7.83-4.31,7.83-8.265,0-4.311-3.599-8.66-10.124-8.66-7.434,0-10.717,4.785-11.152,8.779l5.062,1.345c0.237-2.769,2.175-5.26,6.13-5.26,2.927,0,4.548,1.463,4.548,3.44,0,1.621-1.226,2.887-3.401,3.322l-3.915,0.791c-4.469,0.91-7.356,3.797-7.356,8.028,0,4.982,4.469,8.779,9.768,8.779,6.802,0,9.412-4.113,10.045-7.276l-4.904-1.503z"/>
  </g>
  <g id="g22" transform="matrix(1.25,0,0,-1.25,235.68,437.34)">
   <path id="path24" fill="#143a81" d="M0,0h7.751l-3.876,10.599-3.875-10.599zm9.57-4.982h-11.389l-2.333-6.408h-5.774l10.757,28.038h6.327l10.677-28.038h-5.932l-2.333,6.408z"/>
  </g>
  <g id="g26" transform="matrix(1.25,0,0,-1.25,123.24,471.31)">
   <path id="path28" fill="#143a81" d="M0,0v3.068h-3.526v-3.068h-0.955v6.906h0.955v-2.951h3.526v2.951h0.955v-6.906h-0.955z"/>
  </g>
  <g id="g30" transform="matrix(1.25,0,0,-1.25,129.88,468.8)">
   <path id="path32" fill="#143a81" d="M0,0v0.215l-1.432-0.215c-0.389-0.059-0.682-0.282-0.682-0.701,0-0.351,0.293-0.682,0.76-0.682,0.75,0,1.354,0.361,1.354,1.383m-1.626,0.672,1.266,0.185c0.282,0.039,0.36,0.185,0.36,0.351,0,0.458-0.302,0.838-1.013,0.838-0.643,0-1.003-0.4-1.062-0.945l-0.876,0.205c0.097,0.895,0.906,1.519,1.919,1.519,1.402,0,1.948-0.799,1.948-1.715v-2.347c0-0.409,0.039-0.653,0.058-0.77h-0.896c-0.019,0.117-0.049,0.292-0.049,0.634-0.204-0.332-0.672-0.779-1.509-0.779-0.955,0-1.569,0.662-1.569,1.402,0,0.838,0.614,1.306,1.423,1.422"/>
  </g>
  <g id="g34" transform="matrix(1.25,0,0,-1.25,136.06,466.61)">
   <path id="path36" fill="#143a81" d="m0,0c-0.137,0.021-0.273,0.029-0.399,0.029-0.77,0-1.286-0.409-1.286-1.441v-2.348h-0.916v4.686h0.896v-0.819c0.341,0.721,0.926,0.897,1.403,0.897,0.127,0,0.253-0.02,0.302-0.029v-0.975z"/>
  </g>
  <path id="path38" fill="#143a81" d="m137.27,465.45h1.1325v5.8575h-1.13v-5.86zm0.56-3.0438c0.46375,0,0.82875,0.365,0.82875,0.8275,0,0.45125-0.365,0.81625-0.82875,0.81625-0.45,0-0.815-0.365-0.815-0.81625,0-0.4625,0.365-0.8275,0.815-0.8275"/>
  <g id="g40" transform="matrix(1.25,0,0,-1.25,142.75,470.45)">
   <path id="path42" fill="#143a81" d="M0,0c0.837,0,1.354,0.73,1.354,1.694,0,0.965-0.507,1.627-1.344,1.627-0.838,0-1.384-0.681-1.384-1.646,0-0.964,0.497-1.675,1.374-1.675m1.364,0.029c-0.224-0.449-0.721-0.838-1.452-0.838-1.373,0-2.221,1.091-2.221,2.484,0,1.325,0.896,2.455,2.221,2.455,0.828,0,1.276-0.409,1.432-0.789v3.029h0.906v-6.185c0-0.449,0.039-0.789,0.049-0.868h-0.887c-0.019,0.108-0.048,0.351-0.048,0.634v0.078z"/>
  </g>
  <g id="g44" transform="matrix(1.25,0,0,-1.25,149.58,471.49)">
   <path id="path46" fill="#143a81" d="m0,0c-1.091,0-1.753,0.818-1.753,1.88v2.951h0.915v-2.815c0-0.643,0.293-1.207,1.062-1.207,0.74,0,1.11,0.486,1.11,1.197v2.825h0.916v-3.818c0-0.37,0.029-0.701,0.049-0.867h-0.877c-0.02,0.107-0.039,0.37-0.039,0.565-0.253-0.487-0.838-0.711-1.383-0.711"/>
  </g>
  <g id="g48" transform="matrix(1.25,0,0,-1.25,154.83,469.42)">
   <path id="path50" fill="#143a81" d="m0,0c0.059-0.486,0.429-0.876,1.091-0.876,0.516,0,0.799,0.292,0.799,0.623,0,0.292-0.214,0.517-0.604,0.604l-0.799,0.175c-0.73,0.157-1.169,0.653-1.169,1.316,0,0.799,0.75,1.48,1.666,1.48,1.286,0,1.685-0.838,1.783-1.257l-0.809-0.301c-0.039,0.243-0.234,0.779-0.974,0.779-0.468,0-0.779-0.302-0.779-0.624,0-0.282,0.175-0.486,0.536-0.565l0.759-0.166c0.848-0.184,1.296-0.701,1.296-1.392,0-0.662-0.555-1.451-1.714-1.451-1.287,0-1.832,0.828-1.91,1.363l0.828,0.292z"/>
  </g>
  <g id="g52" transform="matrix(1.25,0,0,-1.25,163.73,467.77)">
   <path id="path54" fill="#143a81" d="M0,0c-0.02,0.672-0.458,1.198-1.286,1.198-0.77,0-1.237-0.594-1.276-1.198h2.562zm0.925-1.49c-0.263-0.828-1.013-1.481-2.104-1.481-1.257,0-2.357,0.915-2.357,2.503,0,1.471,1.062,2.475,2.24,2.475,1.442,0,2.251-0.994,2.251-2.455,0-0.117-0.01-0.234-0.02-0.292h-3.526c0.019-0.838,0.623-1.422,1.412-1.422,0.76,0,1.14,0.419,1.315,0.944l0.789-0.272z"/>
  </g>
  <path id="path56" fill="#143a81" d="m169.55,462.67h1.2175v8.6325h-1.22v-8.63z"/>
  <g id="g58" transform="matrix(1.25,0,0,-1.25,173.98,471.31)">
   <path id="path60" fill="#143a81" d="M0,0h-0.916v4.686h0.896v-0.672c0.341,0.584,0.896,0.808,1.442,0.808,1.12,0,1.676-0.808,1.676-1.85v-2.972h-0.916v2.815c0,0.653-0.273,1.179-1.091,1.179-0.721,0-1.091-0.575-1.091-1.286v-2.708z"/>
  </g>
  <g id="g62" transform="matrix(1.25,0,0,-1.25,181.22,466.48)">
   <path id="path64" fill="#143a81" d="M0,0v-3.857h-0.945v3.857h-0.867v0.828h0.867v0.789c0,1.042,0.692,1.608,1.539,1.608,0.312,0,0.507-0.069,0.546-0.098v-0.818c-0.049,0.019-0.166,0.058-0.4,0.058-0.321,0-0.74-0.155-0.74-0.799v-0.74h1.13v-0.828h-1.13z"/>
  </g>
  <g id="g66" transform="matrix(1.25,0,0,-1.25,187.95,468.37)">
   <path id="path68" fill="#143a81" d="m0,0c0,1.081-0.682,1.666-1.461,1.666-0.78,0-1.461-0.585-1.461-1.666,0-1.091,0.681-1.675,1.461-1.675,0.779,0,1.461,0.584,1.461,1.675m0.935,0c0-1.432-0.994-2.493-2.396-2.493-1.403,0-2.397,1.061-2.397,2.493,0,1.423,0.994,2.484,2.397,2.484,1.402,0,2.396-1.061,2.396-2.484"/>
  </g>
  <g id="g70" transform="matrix(1.25,0,0,-1.25,192.05,465.45)">
   <path id="path72" fill="#143a81" d="M0,0h1.013v-0.828h-1.013v-2.435c0-0.428,0.175-0.643,0.652-0.643,0.118,0,0.283,0.019,0.361,0.039v-0.779c-0.078-0.03-0.312-0.088-0.623-0.088-0.799,0-1.306,0.487-1.306,1.335v2.571h-0.896v0.828h0.253c0.507,0,0.721,0.312,0.721,0.721v0.759h0.838v-1.48z"/>
  </g>
  <g id="g74" transform="matrix(1.25,0,0,-1.25,198.72,467.77)">
   <path id="path76" fill="#143a81" d="M0,0c-0.02,0.672-0.458,1.198-1.286,1.198-0.77,0-1.237-0.594-1.276-1.198h2.562zm0.925-1.49c-0.263-0.828-1.013-1.481-2.104-1.481-1.257,0-2.357,0.915-2.357,2.503,0,1.471,1.061,2.475,2.241,2.475,1.441,0,2.25-0.994,2.25-2.455,0-0.117-0.01-0.234-0.02-0.292h-3.526c0.019-0.838,0.623-1.422,1.412-1.422,0.76,0,1.14,0.419,1.315,0.944l0.789-0.272z"/>
  </g>
  <g id="g78" transform="matrix(1.25,0,0,-1.25,202.52,471.31)">
   <path id="path80" fill="#143a81" d="M0,0h-0.916v7.053h0.916v-2.913c0.341,0.497,0.887,0.682,1.422,0.682,1.12,0,1.676-0.808,1.676-1.85v-2.972h-0.916v2.815c0,0.653-0.273,1.179-1.091,1.179-0.701,0-1.071-0.546-1.091-1.237v-2.757z"/>
  </g>
  <g id="g82" transform="matrix(1.25,0,0,-1.25,209.36,471.31)">
   <path id="path84" fill="#143a81" d="M0,0h-0.916v4.686h0.896v-0.672c0.341,0.584,0.896,0.808,1.442,0.808,1.12,0,1.676-0.808,1.676-1.85v-2.972h-0.916v2.815c0,0.653-0.273,1.179-1.091,1.179-0.721,0-1.091-0.575-1.091-1.286v-2.708z"/>
  </g>
  <g id="g86" transform="matrix(1.25,0,0,-1.25,219.4,468.37)">
   <path id="path88" fill="#143a81" d="M0,0c0,1.081-0.682,1.666-1.461,1.666s-1.461-0.585-1.461-1.666c0-1.091,0.682-1.675,1.461-1.675s1.461,0.584,1.461,1.675m0.935,0c0-1.432-0.994-2.493-2.396-2.493-1.403,0-2.396,1.061-2.396,2.493,0,1.423,0.993,2.484,2.396,2.484,1.402,0,2.396-1.061,2.396-2.484"/>
  </g>
  <path id="path90" fill="#143a81" d="m222.03,462.49h1.145v8.8162h-1.15v-8.82z"/>
  <g id="g92" transform="matrix(1.25,0,0,-1.25,229.45,468.37)">
   <path id="path94" fill="#143a81" d="m0,0c0,1.081-0.682,1.666-1.461,1.666-0.78,0-1.461-0.585-1.461-1.666,0-1.091,0.681-1.675,1.461-1.675,0.779,0,1.461,0.584,1.461,1.675m0.935,0c0-1.432-0.994-2.493-2.396-2.493-1.403,0-2.397,1.061-2.397,2.493,0,1.423,0.994,2.484,2.397,2.484,1.402,0,2.396-1.061,2.396-2.484"/>
  </g>
  <g id="g96" transform="matrix(1.25,0,0,-1.25,236.42,468.37)">
   <path id="path98" fill="#143a81" d="m0,0c0,1.081-0.682,1.666-1.461,1.666-0.78,0-1.461-0.585-1.461-1.666,0-1.091,0.681-1.675,1.461-1.675,0.779,0,1.461,0.584,1.461,1.675m0.935,0c0-1.432-0.994-2.493-2.396-2.493-1.403,0-2.396,1.061-2.396,2.493,0,1.423,0.993,2.484,2.396,2.484,1.402,0,2.396-1.061,2.396-2.484"/>
  </g>
  <g id="g100" transform="matrix(1.25,0,0,-1.25,243.16,468.19)">
   <path id="path102" fill="#143a81" d="m0,0c0,0.905-0.545,1.5-1.334,1.5-0.809,0-1.354-0.595-1.354-1.5,0-0.916,0.525-1.5,1.354-1.5,0.789,0,1.334,0.594,1.334,1.5m-2.747-2.543c0.068-0.652,0.565-1.149,1.276-1.149,0.984,0,1.432,0.506,1.432,1.519v0.673c-0.224-0.429-0.731-0.77-1.432-0.77-1.247,0-2.153,0.945-2.153,2.27,0,1.266,0.867,2.279,2.153,2.279,0.721,0,1.208-0.272,1.442-0.74v0.652h0.905v-4.335c0-1.187-0.584-2.347-2.347-2.347-1.169,0-2.046,0.741-2.163,1.744l0.887,0.204z"/>
  </g>
  <path id="path104" fill="#143a81" d="m246.08,465.45h1.1325v5.8575h-1.13v-5.86zm0.56-3.0438c0.4625,0,0.8275,0.365,0.8275,0.8275,0,0.45125-0.365,0.81625-0.8275,0.81625-0.45125,0-0.81625-0.365-0.81625-0.81625,0-0.4625,0.365-0.8275,0.81625-0.8275"/>
  <g id="g106" transform="matrix(1.25,0,0,-1.25,252.61,468.8)">
   <path id="path108" fill="#143a81" d="M0,0v0.215l-1.432-0.215c-0.39-0.059-0.682-0.282-0.682-0.701,0-0.351,0.292-0.682,0.76-0.682,0.75,0,1.354,0.361,1.354,1.383m-1.627,0.672,1.267,0.185c0.282,0.039,0.36,0.185,0.36,0.351,0,0.458-0.302,0.838-1.013,0.838-0.643,0-1.004-0.4-1.062-0.945l-0.877,0.205c0.098,0.895,0.906,1.519,1.919,1.519,1.403,0,1.949-0.799,1.949-1.715v-2.347c0-0.409,0.039-0.653,0.058-0.77h-0.896c-0.019,0.117-0.049,0.292-0.049,0.634-0.204-0.332-0.672-0.779-1.509-0.779-0.956,0-1.569,0.662-1.569,1.402,0,0.838,0.613,1.306,1.422,1.422"/>
  </g>
  <g id="g110" transform="matrix(1.25,0,0,-1.25,122.07,480.35)">
   <path id="path112" fill="#143a81" d="m0,0c-0.078,0.497-0.497,1.179-1.461,1.179-0.78,0-1.335-0.507-1.335-1.15,0-0.497,0.302-0.877,0.887-1.003l1.032-0.224c1.149-0.253,1.793-0.974,1.793-1.939,0-1.071-0.916-2.046-2.387-2.046-1.666,0-2.455,1.073-2.581,2.056l0.915,0.292c0.069-0.769,0.614-1.48,1.656-1.48,0.955,0,1.422,0.497,1.422,1.1,0,0.497-0.34,0.926-1.032,1.071l-0.984,0.215c-0.984,0.214-1.685,0.858-1.685,1.89,0,1.081,1.003,2.056,2.279,2.056,1.559,0,2.182-0.965,2.338-1.715l-0.857-0.302z"/>
  </g>
  <path id="path114" fill="#143a81" d="m124.67,480.79h1.1325v5.8575h-1.13v-5.86zm0.56-3.0438c0.46375,0,0.82875,0.365,0.82875,0.8275,0,0.45125-0.365,0.81625-0.82875,0.81625-0.45,0-0.815-0.365-0.815-0.81625,0-0.4625,0.365-0.8275,0.815-0.8275"/>
  <g id="g116" transform="matrix(1.25,0,0,-1.25,128.9,486.65)">
   <path id="path118" fill="#143a81" d="M0,0h-0.916v7.053h0.916v-2.913c0.341,0.497,0.886,0.682,1.422,0.682,1.12,0,1.676-0.808,1.676-1.851v-2.971h-0.916v2.815c0,0.653-0.273,1.179-1.091,1.179-0.701,0-1.071-0.546-1.091-1.237v-2.757z"/>
  </g>
  <g id="g120" transform="matrix(1.25,0,0,-1.25,136.13,480.79)">
   <path id="path122" fill="#143a81" d="M0,0h1.013v-0.828h-1.013v-2.436c0-0.428,0.175-0.642,0.653-0.642,0.117,0,0.282,0.019,0.36,0.039v-0.779c-0.078-0.03-0.312-0.088-0.623-0.088-0.799,0-1.306,0.487-1.306,1.335v2.571h-0.896v0.828h0.253c0.507,0,0.721,0.312,0.721,0.721v0.759h0.838v-1.48z"/>
  </g>
  <g id="g124" transform="matrix(1.25,0,0,-1.25,142.36,484.14)">
   <path id="path126" fill="#143a81" d="M0,0v0.214l-1.432-0.214c-0.389-0.059-0.681-0.282-0.681-0.702,0-0.35,0.292-0.682,0.759-0.682,0.75,0,1.354,0.362,1.354,1.384m-1.626,0.672,1.266,0.185c0.282,0.039,0.36,0.185,0.36,0.351,0,0.457-0.302,0.838-1.013,0.838-0.643,0-1.003-0.4-1.062-0.945l-0.876,0.204c0.097,0.896,0.906,1.52,1.919,1.52,1.403,0,1.948-0.799,1.948-1.715v-2.347c0-0.409,0.039-0.653,0.059-0.77h-0.897c-0.019,0.117-0.049,0.292-0.049,0.633-0.204-0.331-0.672-0.779-1.509-0.779-0.955,0-1.569,0.663-1.569,1.403,0,0.838,0.614,1.305,1.423,1.422"/>
  </g>
  <g id="g128" transform="matrix(1.25,0,0,-1.25,145.77,484.76)">
   <path id="path130" fill="#143a81" d="m0,0c0.058-0.487,0.429-0.877,1.091-0.877,0.516,0,0.799,0.293,0.799,0.624,0,0.292-0.215,0.516-0.604,0.604l-0.799,0.175c-0.731,0.156-1.169,0.653-1.169,1.315,0,0.799,0.75,1.481,1.666,1.481,1.286,0,1.685-0.838,1.782-1.257l-0.808-0.302c-0.039,0.244-0.234,0.78-0.974,0.78-0.468,0-0.779-0.303-0.779-0.624,0-0.282,0.175-0.487,0.535-0.565l0.76-0.166c0.848-0.185,1.295-0.701,1.295-1.393,0-0.662-0.555-1.451-1.714-1.451-1.286,0-1.831,0.828-1.909,1.364l0.828,0.292z"/>
  </g>
  <g id="g132" transform="matrix(1.25,0,0,-1.25,152.86,486.83)">
   <path id="path134" fill="#143a81" d="m0,0c-1.091,0-1.753,0.818-1.753,1.88v2.952h0.915v-2.815c0-0.643,0.293-1.208,1.062-1.208,0.74,0,1.11,0.487,1.11,1.198v2.825h0.916v-3.818c0-0.37,0.029-0.702,0.049-0.868h-0.877c-0.02,0.108-0.039,0.371-0.039,0.566-0.253-0.487-0.838-0.712-1.383-0.712"/>
  </g>
  <g id="g136" transform="matrix(1.25,0,0,-1.25,159.15,480.79)">
   <path id="path138" fill="#143a81" d="M0,0h1.013v-0.828h-1.013v-2.436c0-0.428,0.175-0.642,0.653-0.642,0.117,0,0.282,0.019,0.36,0.039v-0.779c-0.078-0.03-0.312-0.088-0.623-0.088-0.799,0-1.306,0.487-1.306,1.335v2.571h-0.896v0.828h0.253c0.507,0,0.721,0.312,0.721,0.721v0.759h0.838v-1.48z"/>
  </g>
  <g id="g140" transform="matrix(1.25,0,0,-1.25,164.07,486.83)">
   <path id="path142" fill="#143a81" d="m0,0c-1.091,0-1.753,0.818-1.753,1.88v2.952h0.915v-2.815c0-0.643,0.293-1.208,1.062-1.208,0.74,0,1.11,0.487,1.11,1.198v2.825h0.916v-3.818c0-0.37,0.029-0.702,0.049-0.868h-0.877c-0.019,0.108-0.039,0.371-0.039,0.566-0.253-0.487-0.838-0.712-1.383-0.712"/>
  </g>
  <g id="g144" transform="matrix(1.25,0,0,-1.25,169.32,484.76)">
   <path id="path146" fill="#143a81" d="m0,0c0.059-0.487,0.429-0.877,1.091-0.877,0.516,0,0.799,0.293,0.799,0.624,0,0.292-0.214,0.516-0.604,0.604l-0.799,0.175c-0.73,0.156-1.169,0.653-1.169,1.315,0,0.799,0.75,1.481,1.666,1.481,1.286,0,1.685-0.838,1.783-1.257l-0.809-0.302c-0.039,0.244-0.234,0.78-0.974,0.78-0.467,0-0.779-0.303-0.779-0.624,0-0.282,0.175-0.487,0.536-0.565l0.759-0.166c0.848-0.185,1.296-0.701,1.296-1.393,0-0.662-0.555-1.451-1.714-1.451-1.287,0-1.832,0.828-1.91,1.364l0.828,0.292z"/>
  </g>
  <g id="g148" transform="matrix(1.25,0,0,-1.25,73.791,429.66)">
   <path id="path150" fill="#03a64b" d="M0,0v0.001l6.989,6.988v-6.989h6.99v0.001l6.989,6.989h-6.989v6.99l-6.99-6.99h-6.989v6.99l-6.99-6.99h-6.989v-6.99l6.989,6.989v-6.989h6.99z"/>
  </g>
  <g id="g152" transform="matrix(1.25,0,0,-1.25,91.264,438.39)">
   <path id="path154" fill="#03a64b" d="M0,0-6.99,6.99v-6.99h-6.989l-6.989,6.99v-6.99h-6.99v-6.99l6.99,6.989v-13.979l6.989,6.99v0.001l6.989,6.988v-13.979l6.99,6.99v0.001l6.99,6.989h-6.99z"/>
  </g>
  <g id="g156" transform="matrix(1.25,0,0,-1.25,65.055,438.39)">
   <path id="path158" fill="#143a81" d="M0,0-6.991-6.99h6.991v6.99z"/>
  </g>
  <g id="g160" transform="matrix(1.25,0,0,-1.25,65.054,412.18)">
   <path id="path162" fill="#143a81" d="M0,0v-6.99l6.99,6.99h-6.99z"/>
  </g>
  <g id="g164" transform="matrix(1.25,0,0,-1.25,73.791,455.87)">
   <path id="path166" fill="#143a81" d="M0,0v6.99l-6.99-6.99h6.99z"/>
  </g>
  <g id="g168" transform="matrix(1.25,0,0,-1.25,82.527,438.39)">
   <path id="path170" fill="#143a81" d="M0,0-6.99-6.99h6.99v6.99z"/>
  </g>
  <g id="g172" transform="matrix(1.25,0,0,-1.25,82.527,412.18)">
   <path id="path174" fill="#143a81" d="M0,0v-6.99l6.99,6.99h-6.99z"/>
  </g>
  <g id="g176" transform="matrix(1.25,0,0,-1.25,91.264,455.87)">
   <path id="path178" fill="#143a81" d="M0,0v6.99l-6.99-6.99h6.99z"/>
  </g>
  <g id="g180" transform="matrix(1.25,0,0,-1.25,91.263,429.66)">
   <path id="path182" fill="#143a81" d="M0,0h-6.988v6.99l-6.991-6.99h-6.987v6.99l-6.991-6.99h6.99l6.989-6.99v6.99h6.989l6.99-6.99v6.99h6.99v6.99l-6.991-6.99z"/>
  </g>
  <g id="g184" transform="matrix(1.25,0,0,-1.25,100,447.13)">
   <path id="path186" fill="#143a81" d="M0,0v6.99l-6.991-6.99h6.991z"/>
  </g>
 </g>
</svg>
