<?xml version="1.0" encoding="UTF-8" standalone="no"?>
<!-- Created with Inkscape (http://www.inkscape.org/) -->
<svg id="svg2" xmlns:rdf="http://www.w3.org/1999/02/22-rdf-syntax-ns#" xmlns="http://www.w3.org/2000/svg" height="114.72" width="241.67" version="1.1" xmlns:cc="http://creativecommons.org/ns#" xmlns:dc="http://purl.org/dc/elements/1.1/" viewBox="0 0 241.66495 114.72136">
 <metadata id="metadata4">
  <rdf:RDF>
   <cc:Work rdf:about="">
    <dc:format>image/svg+xml</dc:format>
    <dc:type rdf:resource="http://purl.org/dc/dcmitype/StillImage"/>
    <dc:title/>
   </cc:Work>
  </rdf:RDF>
 </metadata>
 <g id="g6" transform="translate(48.431962,-470.95994)">
  <g id="g8" transform="matrix(1.25,0,0,-1.25,54.945,530.43)">
   <path id="path10" fill="#143a81" d="M0,0v11.627h-12.22v-11.627h-5.457v28.038h5.457v-11.27h12.22v11.27h5.497v-28.038h-5.497z"/>
  </g>
  <path id="path12" fill="#143a81" d="m67.846,495.39h6.9212v35.048h-6.921v-35.05z"/>
  <g id="g14" transform="matrix(1.25,0,0,-1.25,97.011,501.86)">
   <path id="path16" fill="#143a81" d="M0,0v-22.858h-5.497v22.858h-8.858v5.18h23.213v-5.18h-8.858z"/>
  </g>
  <g id="g18" transform="matrix(1.25,0,0,-1.25,130.33,505.62)">
   <path id="path20" fill="#143a81" d="m0,0c-0.277,1.542-1.542,3.955-5.102,3.955-2.649,0-4.389-1.701-4.389-3.559,0-1.542,0.989-2.769,3.045-3.165l3.915-0.751c5.102-0.988,7.83-4.31,7.83-8.265,0-4.311-3.598-8.66-10.124-8.66-7.434,0-10.717,4.785-11.152,8.779l5.062,1.345c0.237-2.769,2.175-5.26,6.13-5.26,2.927,0,4.548,1.463,4.548,3.44,0,1.621-1.226,2.887-3.401,3.323l-3.915,0.791c-4.469,0.909-7.356,3.796-7.356,8.027,0,4.982,4.469,8.779,9.768,8.779,6.802,0,9.412-4.112,10.045-7.276l-4.904-1.503z"/>
  </g>
  <g id="g22" transform="matrix(1.25,0,0,-1.25,150.94,516.2)">
   <path id="path24" fill="#143a81" d="M0,0h7.751l-3.876,10.599-3.875-10.599zm9.57-4.982h-11.389l-2.333-6.408h-5.774l10.757,28.038h6.327l10.677-28.038h-5.932l-2.333,6.408z"/>
  </g>
  <path id="path26" fill="#143a81" d="m32.864,541.53h1.2175v8.6325h-1.218v-8.63z"/>
  <g id="g28" transform="matrix(1.25,0,0,-1.25,37.295,550.16)">
   <path id="path30" fill="#143a81" d="M0,0h-0.916v4.686h0.896v-0.672c0.341,0.585,0.896,0.808,1.442,0.808,1.12,0,1.676-0.808,1.676-1.85v-2.972h-0.916v2.815c0,0.653-0.273,1.179-1.091,1.179-0.721,0-1.091-0.575-1.091-1.286v-2.708z"/>
  </g>
  <g id="g32" transform="matrix(1.25,0,0,-1.25,44.527,545.34)">
   <path id="path34" fill="#143a81" d="M0,0v-3.857h-0.945v3.857h-0.867v0.828h0.867v0.789c0,1.042,0.692,1.608,1.539,1.608,0.312,0,0.507-0.069,0.546-0.098v-0.817c-0.049,0.018-0.166,0.057-0.4,0.057-0.321,0-0.74-0.155-0.74-0.799v-0.74h1.13v-0.828h-1.13z"/>
  </g>
  <g id="g36" transform="matrix(1.25,0,0,-1.25,51.26,547.22)">
   <path id="path38" fill="#143a81" d="M0,0c0,1.081-0.682,1.666-1.461,1.666s-1.461-0.585-1.461-1.666c0-1.091,0.682-1.675,1.461-1.675s1.461,0.584,1.461,1.675m0.936,0c0-1.432-0.994-2.493-2.397-2.493s-2.396,1.061-2.396,2.493c0,1.423,0.993,2.484,2.396,2.484s2.397-1.061,2.397-2.484"/>
  </g>
  <g id="g40" transform="matrix(1.25,0,0,-1.25,57.141,545.46)">
   <path id="path42" fill="#143a81" d="m0,0c-0.136,0.02-0.273,0.029-0.399,0.029-0.77,0-1.286-0.41-1.286-1.442v-2.348h-0.916v4.686h0.896v-0.819c0.341,0.722,0.926,0.897,1.403,0.897,0.127,0,0.253-0.02,0.302-0.029v-0.974z"/>
  </g>
  <g id="g44" transform="matrix(1.25,0,0,-1.25,58.358,550.16)">
   <path id="path46" fill="#143a81" d="M0,0v4.686h0.877v-0.624c0.292,0.516,0.876,0.76,1.422,0.76,0.584,0,1.149-0.282,1.403-0.886,0.37,0.671,0.974,0.886,1.568,0.886,0.818,0,1.617-0.555,1.617-1.783v-3.039h-0.906v2.942c0,0.614-0.302,1.072-0.994,1.072-0.642,0-1.081-0.507-1.081-1.179v-2.835h-0.915v2.942c0,0.604-0.293,1.072-0.994,1.072-0.653,0-1.091-0.488-1.091-1.189v-2.825h-0.906z"/>
  </g>
  <g id="g48" transform="matrix(1.25,0,0,-1.25,72.238,547.65)">
   <path id="path50" fill="#143a81" d="M0,0v0.215l-1.432-0.215c-0.389-0.059-0.682-0.282-0.682-0.701,0-0.351,0.293-0.682,0.76-0.682,0.75,0,1.354,0.361,1.354,1.383m-1.626,0.672,1.266,0.185c0.282,0.039,0.36,0.186,0.36,0.351,0,0.458-0.302,0.838-1.013,0.838-0.643,0-1.003-0.4-1.062-0.945l-0.876,0.205c0.097,0.895,0.906,1.519,1.919,1.519,1.402,0,1.948-0.799,1.948-1.715v-2.347c0-0.409,0.039-0.653,0.058-0.77h-0.896c-0.019,0.117-0.049,0.293-0.049,0.634-0.204-0.331-0.672-0.779-1.509-0.779-0.955,0-1.569,0.662-1.569,1.402,0,0.838,0.614,1.306,1.423,1.422"/>
  </g>
  <g id="g52" transform="matrix(1.25,0,0,-1.25,76.694,544.3)">
   <path id="path54" fill="#143a81" d="M0,0h1.013v-0.828h-1.013v-2.435c0-0.428,0.175-0.643,0.653-0.643,0.117,0,0.282,0.019,0.36,0.039v-0.779c-0.078-0.03-0.311-0.087-0.623-0.087-0.799,0-1.306,0.486-1.306,1.334v2.571h-0.896v0.828h0.253c0.507,0,0.722,0.312,0.722,0.721v0.76h0.837v-1.481z"/>
  </g>
  <path id="path56" fill="#143a81" d="m79.482,544.3h1.1325v5.8575h-1.132v-5.86zm0.56-3.0438c0.4625,0,0.82875,0.365,0.82875,0.8275,0,0.45-0.36625,0.81625-0.82875,0.81625-0.45,0-0.81625-0.36625-0.81625-0.81625,0-0.4625,0.36625-0.8275,0.81625-0.8275"/>
  <g id="g58" transform="matrix(1.25,0,0,-1.25,86.897,547.22)">
   <path id="path60" fill="#143a81" d="M0,0c0,1.081-0.682,1.666-1.461,1.666s-1.461-0.585-1.461-1.666c0-1.091,0.682-1.675,1.461-1.675s1.461,0.584,1.461,1.675m0.935,0c0-1.432-0.994-2.493-2.396-2.493-1.403,0-2.396,1.061-2.396,2.493,0,1.423,0.993,2.484,2.396,2.484,1.402,0,2.396-1.061,2.396-2.484"/>
  </g>
  <g id="g62" transform="matrix(1.25,0,0,-1.25,90.671,550.16)">
   <path id="path64" fill="#143a81" d="M0,0h-0.916v4.686h0.896v-0.672c0.342,0.585,0.896,0.808,1.442,0.808,1.12,0,1.676-0.808,1.676-1.85v-2.972h-0.916v2.815c0,0.653-0.273,1.179-1.091,1.179-0.721,0-1.091-0.575-1.091-1.286v-2.708z"/>
  </g>
  <g id="g66" transform="matrix(1.25,0,0,-1.25,102.64,542.63)">
   <path id="path68" fill="#143a81" d="M0,0v-6.021h-0.955v6.021h-2.308v0.886h5.572v-0.886h-2.309z"/>
  </g>
  <g id="g70" transform="matrix(1.25,0,0,-1.25,109.41,546.63)">
   <path id="path72" fill="#143a81" d="M0,0c-0.02,0.672-0.458,1.198-1.286,1.198-0.77,0-1.237-0.594-1.276-1.198h2.562zm0.925-1.49c-0.263-0.828-1.013-1.481-2.104-1.481-1.256,0-2.357,0.915-2.357,2.503,0,1.472,1.061,2.475,2.24,2.475,1.442,0,2.251-0.994,2.251-2.455,0-0.116-0.011-0.234-0.02-0.292h-3.526c0.019-0.838,0.623-1.422,1.412-1.422,0.76,0,1.14,0.419,1.315,0.944l0.789-0.272z"/>
  </g>
  <g id="g74" transform="matrix(1.25,0,0,-1.25,112.74,547.22)">
   <path id="path76" fill="#143a81" d="m0,0c0-1.071,0.672-1.646,1.432-1.646,0.877,0,1.198,0.594,1.305,0.964l0.809-0.35c-0.224-0.672-0.897-1.461-2.114-1.461-1.364,0-2.367,1.071-2.367,2.493,0,1.461,1.022,2.484,2.357,2.484,1.247,0,1.89-0.779,2.084-1.49l-0.827-0.35c-0.117,0.457-0.458,0.993-1.257,0.993-0.74,0-1.422-0.546-1.422-1.637"/>
  </g>
  <g id="g78" transform="matrix(1.25,0,0,-1.25,119.66,550.16)">
   <path id="path80" fill="#143a81" d="M0,0h-0.916v7.053h0.916v-2.912c0.341,0.496,0.887,0.681,1.422,0.681,1.12,0,1.676-0.808,1.676-1.85v-2.972h-0.916v2.815c0,0.653-0.273,1.179-1.091,1.179-0.701,0-1.071-0.546-1.091-1.237v-2.757z"/>
  </g>
  <g id="g82" transform="matrix(1.25,0,0,-1.25,126.5,550.16)">
   <path id="path84" fill="#143a81" d="M0,0h-0.916v4.686h0.896v-0.672c0.341,0.585,0.897,0.808,1.442,0.808,1.12,0,1.676-0.808,1.676-1.85v-2.972h-0.916v2.815c0,0.653-0.273,1.179-1.091,1.179-0.721,0-1.091-0.575-1.091-1.286v-2.708z"/>
  </g>
  <g id="g86" transform="matrix(1.25,0,0,-1.25,136.54,547.22)">
   <path id="path88" fill="#143a81" d="M0,0c0,1.081-0.682,1.666-1.461,1.666s-1.461-0.585-1.461-1.666c0-1.091,0.682-1.675,1.461-1.675s1.461,0.584,1.461,1.675m0.935,0c0-1.432-0.994-2.493-2.396-2.493-1.403,0-2.396,1.061-2.396,2.493,0,1.423,0.993,2.484,2.396,2.484,1.402,0,2.396-1.061,2.396-2.484"/>
  </g>
  <path id="path90" fill="#143a81" d="m139.16,541.34h1.145v8.8162h-1.14v-8.82z"/>
  <g id="g92" transform="matrix(1.25,0,0,-1.25,146.59,547.22)">
   <path id="path94" fill="#143a81" d="m0,0c0,1.081-0.682,1.666-1.461,1.666-0.78,0-1.461-0.585-1.461-1.666,0-1.091,0.681-1.675,1.461-1.675,0.779,0,1.461,0.584,1.461,1.675m0.935,0c0-1.432-0.994-2.493-2.396-2.493-1.403,0-2.397,1.061-2.397,2.493,0,1.423,0.994,2.484,2.397,2.484,1.402,0,2.396-1.061,2.396-2.484"/>
  </g>
  <g id="g96" transform="matrix(1.25,0,0,-1.25,153.34,547.04)">
   <path id="path98" fill="#143a81" d="m0,0c0,0.906-0.545,1.5-1.335,1.5-0.808,0-1.353-0.594-1.353-1.5,0-0.916,0.525-1.5,1.353-1.5,0.79,0,1.335,0.594,1.335,1.5m-2.747-2.542c0.068-0.653,0.565-1.15,1.276-1.15,0.984,0,1.432,0.506,1.432,1.52v0.672c-0.224-0.429-0.731-0.77-1.432-0.77-1.247,0-2.153,0.945-2.153,2.27,0,1.267,0.867,2.279,2.153,2.279,0.721,0,1.208-0.272,1.442-0.74v0.652h0.905v-4.335c0-1.187-0.584-2.347-2.347-2.347-1.169,0-2.046,0.741-2.163,1.744l0.887,0.205z"/>
  </g>
  <g id="g100" transform="matrix(1.25,0,0,-1.25,156.41,552.61)">
   <path id="path102" fill="#143a81" d="M0,0,1.168,2.475-0.848,6.644h1.052l1.461-3.234,1.403,3.234h0.984l-3.049-6.644h-1.003z"/>
  </g>
  <g id="g104" transform="matrix(1.25,0,0,-1.25,32.863,565.5)">
   <path id="path106" fill="#143a81" d="M0,0v6.906h4.198v-0.886h-3.243v-2.221h2.941v-0.896h-2.941v-2.903h-0.955z"/>
  </g>
  <g id="g108" transform="matrix(1.25,0,0,-1.25,43.358,562.56)">
   <path id="path110" fill="#143a81" d="M0,0c0,1.081-0.682,1.666-1.461,1.666s-1.461-0.585-1.461-1.666c0-1.091,0.682-1.676,1.461-1.676s1.461,0.585,1.461,1.676m0.935,0c0-1.432-0.993-2.494-2.396-2.494s-2.396,1.062-2.396,2.494c0,1.422,0.993,2.484,2.396,2.484s2.396-1.062,2.396-2.484"/>
  </g>
  <g id="g112" transform="matrix(1.25,0,0,-1.25,48.058,565.68)">
   <path id="path114" fill="#143a81" d="m0,0c-1.091,0-1.753,0.818-1.753,1.881v2.951h0.915v-2.815c0-0.643,0.293-1.208,1.062-1.208,0.74,0,1.11,0.487,1.11,1.198v2.825h0.916v-3.818c0-0.37,0.029-0.702,0.049-0.868h-0.877c-0.019,0.108-0.039,0.371-0.039,0.566-0.253-0.487-0.838-0.712-1.383-0.712"/>
  </g>
  <g id="g116" transform="matrix(1.25,0,0,-1.25,53.963,565.5)">
   <path id="path118" fill="#143a81" d="M0,0h-0.916v4.686h0.896v-0.672c0.341,0.584,0.896,0.808,1.442,0.808,1.12,0,1.676-0.808,1.676-1.851v-2.971h-0.916v2.815c0,0.653-0.273,1.179-1.091,1.179-0.721,0-1.091-0.575-1.091-1.286v-2.708z"/>
  </g>
  <g id="g120" transform="matrix(1.25,0,0,-1.25,62.059,564.65)">
   <path id="path122" fill="#143a81" d="M0,0c0.838,0,1.354,0.73,1.354,1.695,0,0.964-0.506,1.627-1.344,1.627s-1.384-0.682-1.384-1.646c0-0.965,0.498-1.676,1.374-1.676m1.364,0.029c-0.224-0.448-0.721-0.838-1.451-0.838-1.374,0-2.222,1.092-2.222,2.485,0,1.325,0.897,2.455,2.222,2.455,0.827,0,1.275-0.409,1.431-0.789v3.029h0.906v-6.185c0-0.449,0.039-0.79,0.049-0.868h-0.886c-0.02,0.108-0.049,0.351-0.049,0.633v0.078z"/>
  </g>
  <g id="g124" transform="matrix(1.25,0,0,-1.25,70.266,562.99)">
   <path id="path126" fill="#143a81" d="M0,0v0.214l-1.432-0.214c-0.389-0.059-0.682-0.282-0.682-0.701,0-0.351,0.293-0.683,0.76-0.683,0.75,0,1.354,0.362,1.354,1.384m-1.626,0.672,1.266,0.185c0.282,0.039,0.36,0.185,0.36,0.351,0,0.458-0.302,0.838-1.013,0.838-0.643,0-1.003-0.4-1.062-0.945l-0.876,0.204c0.097,0.896,0.906,1.52,1.919,1.52,1.403,0,1.948-0.799,1.948-1.715v-2.347c0-0.409,0.039-0.653,0.058-0.77h-0.896c-0.019,0.117-0.049,0.292-0.049,0.633-0.204-0.331-0.672-0.779-1.509-0.779-0.955,0-1.569,0.663-1.569,1.403,0,0.838,0.614,1.305,1.423,1.422"/>
  </g>
  <g id="g128" transform="matrix(1.25,0,0,-1.25,74.722,559.64)">
   <path id="path130" fill="#143a81" d="M0,0h1.013v-0.828h-1.013v-2.436c0-0.427,0.175-0.642,0.653-0.642,0.117,0,0.282,0.019,0.36,0.039v-0.779c-0.078-0.03-0.312-0.088-0.623-0.088-0.799,0-1.306,0.487-1.306,1.335v2.571h-0.896v0.828h0.253c0.507,0,0.721,0.312,0.721,0.721v0.759h0.838v-1.48z"/>
  </g>
  <path id="path132" fill="#143a81" d="m77.51,559.64h1.1325v5.8575h-1.132v-5.86zm0.56-3.045c0.4625,0,0.8275,0.36625,0.8275,0.82875,0,0.45125-0.365,0.81625-0.8275,0.81625-0.45,0-0.81625-0.365-0.81625-0.81625,0-0.4625,0.36625-0.82875,0.81625-0.82875"/>
  <g id="g134" transform="matrix(1.25,0,0,-1.25,84.925,562.56)">
   <path id="path136" fill="#143a81" d="m0,0c0,1.081-0.682,1.666-1.461,1.666-0.78,0-1.461-0.585-1.461-1.666,0-1.091,0.681-1.676,1.461-1.676,0.779,0,1.461,0.585,1.461,1.676m0.935,0c0-1.432-0.994-2.494-2.396-2.494-1.403,0-2.396,1.062-2.396,2.494,0,1.422,0.993,2.484,2.396,2.484,1.402,0,2.396-1.062,2.396-2.484"/>
  </g>
  <g id="g138" transform="matrix(1.25,0,0,-1.25,88.699,565.5)">
   <path id="path140" fill="#143a81" d="M0,0h-0.916v4.686h0.896v-0.672c0.341,0.584,0.897,0.808,1.442,0.808,1.12,0,1.676-0.808,1.676-1.851v-2.971h-0.916v2.815c0,0.653-0.273,1.179-1.091,1.179-0.721,0-1.091-0.575-1.091-1.286v-2.708z"/>
  </g>
  <g id="g142" transform="matrix(1.25,0,0,-1.25,98.975,560.68)">
   <path id="path144" fill="#143a81" d="M0,0v-3.857h-0.945v3.857h-0.867v0.828h0.867v0.789c0,1.042,0.692,1.608,1.539,1.608,0.312,0,0.507-0.069,0.546-0.098v-0.818c-0.049,0.019-0.166,0.058-0.399,0.058-0.322,0-0.741-0.156-0.741-0.799v-0.74h1.13v-0.828h-1.13z"/>
  </g>
  <g id="g146" transform="matrix(1.25,0,0,-1.25,105.71,562.56)">
   <path id="path148" fill="#143a81" d="M0,0c0,1.081-0.682,1.666-1.461,1.666s-1.461-0.585-1.461-1.666c0-1.091,0.682-1.676,1.461-1.676s1.461,0.585,1.461,1.676m0.935,0c0-1.432-0.994-2.494-2.396-2.494-1.403,0-2.396,1.062-2.396,2.494,0,1.422,0.993,2.484,2.396,2.484,1.402,0,2.396-1.062,2.396-2.484"/>
  </g>
  <g id="g150" transform="matrix(1.25,0,0,-1.25,111.59,560.8)">
   <path id="path152" fill="#143a81" d="m0,0c-0.136,0.02-0.272,0.029-0.399,0.029-0.77,0-1.286-0.409-1.286-1.441v-2.348h-0.916v4.686h0.896v-0.819c0.341,0.721,0.926,0.897,1.403,0.897,0.127,0,0.253-0.02,0.302-0.029v-0.975z"/>
  </g>
  <g id="g154" transform="matrix(1.25,0,0,-1.25,115.97,565.5)">
   <path id="path156" fill="#143a81" d="M0,0v6.906h4.198v-0.886h-3.244v-2.124h2.942v-0.896h-2.942v-2.113h3.244v-0.887h-4.198z"/>
  </g>
  <g id="g158" transform="matrix(1.25,0,0,-1.25,125.08,564.65)">
   <path id="path160" fill="#143a81" d="m0,0c0.838,0,1.354,0.73,1.354,1.695,0,0.964-0.507,1.627-1.345,1.627-0.837,0-1.383-0.682-1.383-1.646,0-0.965,0.498-1.676,1.374-1.676m1.364,0.029c-0.224-0.448-0.721-0.838-1.452-0.838-1.373,0-2.221,1.092-2.221,2.485,0,1.325,0.896,2.455,2.221,2.455,0.828,0,1.276-0.409,1.432-0.789v3.029h0.906v-6.185c0-0.449,0.039-0.79,0.049-0.868h-0.887c-0.019,0.108-0.048,0.351-0.048,0.633v0.078z"/>
  </g>
  <g id="g162" transform="matrix(1.25,0,0,-1.25,131.91,565.68)">
   <path id="path164" fill="#143a81" d="m0,0c-1.091,0-1.753,0.818-1.753,1.881v2.951h0.915v-2.815c0-0.643,0.293-1.208,1.062-1.208,0.74,0,1.11,0.487,1.11,1.198v2.825h0.916v-3.818c0-0.37,0.029-0.702,0.049-0.868h-0.877c-0.02,0.108-0.039,0.371-0.039,0.566-0.253-0.487-0.838-0.712-1.383-0.712"/>
  </g>
  <g id="g166" transform="matrix(1.25,0,0,-1.25,137.29,562.56)">
   <path id="path168" fill="#143a81" d="m0,0c0-1.071,0.672-1.646,1.432-1.646,0.876,0,1.198,0.594,1.305,0.964l0.808-0.35c-0.223-0.673-0.896-1.462-2.113-1.462-1.364,0-2.367,1.072-2.367,2.494,0,1.461,1.022,2.484,2.357,2.484,1.246,0,1.89-0.779,2.084-1.491l-0.827-0.35c-0.117,0.458-0.458,0.994-1.257,0.994-0.74,0-1.422-0.546-1.422-1.637"/>
  </g>
  <g id="g170" transform="matrix(1.25,0,0,-1.25,146.45,562.99)">
   <path id="path172" fill="#143a81" d="M0,0v0.214l-1.432-0.214c-0.39-0.059-0.682-0.282-0.682-0.701,0-0.351,0.292-0.683,0.76-0.683,0.75,0,1.354,0.362,1.354,1.384m-1.627,0.672,1.266,0.185c0.283,0.039,0.361,0.185,0.361,0.351,0,0.458-0.302,0.838-1.013,0.838-0.643,0-1.004-0.4-1.062-0.945l-0.877,0.204c0.098,0.896,0.906,1.52,1.919,1.52,1.403,0,1.948-0.799,1.948-1.715v-2.347c0-0.409,0.04-0.653,0.059-0.77h-0.896c-0.02,0.117-0.049,0.292-0.049,0.633-0.205-0.331-0.672-0.779-1.51-0.779-0.955,0-1.568,0.663-1.568,1.403,0,0.838,0.613,1.305,1.422,1.422"/>
  </g>
  <g id="g174" transform="matrix(1.25,0,0,-1.25,150.9,559.64)">
   <path id="path176" fill="#143a81" d="M0,0h1.013v-0.828h-1.013v-2.436c0-0.427,0.175-0.642,0.653-0.642,0.117,0,0.282,0.019,0.36,0.039v-0.779c-0.078-0.03-0.312-0.088-0.623-0.088-0.799,0-1.306,0.487-1.306,1.335v2.571h-0.896v0.828h0.253c0.507,0,0.721,0.312,0.721,0.721v0.759h0.838v-1.48z"/>
  </g>
  <path id="path178" fill="#143a81" d="m153.69,559.64h1.1325v5.8575h-1.13v-5.86zm0.56-3.045c0.4625,0,0.8275,0.36625,0.8275,0.82875,0,0.45125-0.365,0.81625-0.8275,0.81625-0.45125,0-0.81625-0.365-0.81625-0.81625,0-0.4625,0.365-0.82875,0.81625-0.82875"/>
  <g id="g180" transform="matrix(1.25,0,0,-1.25,161.11,562.56)">
   <path id="path182" fill="#143a81" d="m0,0c0,1.081-0.682,1.666-1.461,1.666-0.78,0-1.461-0.585-1.461-1.666,0-1.091,0.681-1.676,1.461-1.676,0.779,0,1.461,0.585,1.461,1.676m0.935,0c0-1.432-0.994-2.494-2.396-2.494-1.403,0-2.397,1.062-2.397,2.494,0,1.422,0.994,2.484,2.397,2.484,1.402,0,2.396-1.062,2.396-2.484"/>
  </g>
  <g id="g184" transform="matrix(1.25,0,0,-1.25,164.88,565.5)">
   <path id="path186" fill="#143a81" d="M0,0h-0.916v4.686h0.896v-0.672c0.341,0.584,0.896,0.808,1.442,0.808,1.12,0,1.676-0.808,1.676-1.851v-2.971h-0.916v2.815c0,0.653-0.273,1.179-1.091,1.179-0.721,0-1.091-0.575-1.091-1.286v-2.708z"/>
  </g>
  <g id="g188" transform="matrix(1.25,0,0,-1.25,-10.958,508.44)">
   <path id="path190" fill="#03a64b" d="M0,0v0.001l6.988,6.988v-6.989h6.991v0.001l6.989,6.989h-6.989v6.99l-6.991-6.99h-6.988v6.99l-6.99-6.99h-6.989v-6.99l6.989,6.989v-6.989h6.99z"/>
  </g>
  <g id="g192" transform="matrix(1.25,0,0,-1.25,6.5149,517.18)">
   <path id="path194" fill="#03a64b" d="M0,0-6.99,6.99v-6.99h-6.989l-6.99,6.99v-6.99h-6.989v-6.991l6.989,6.99v-13.98l6.99,6.99v0.001l6.989,6.989v-13.98l6.99,6.99v0.001l6.989,6.99h-6.989z"/>
  </g>
  <g id="g196" transform="matrix(1.25,0,0,-1.25,-19.695,517.18)">
   <path id="path198" fill="#143a81" d="M0,0-6.99-6.991h6.99v6.991z"/>
  </g>
  <g id="g200" transform="matrix(1.25,0,0,-1.25,-19.696,490.96)">
   <path id="path202" fill="#143a81" d="M0,0v-6.99l6.99,6.99h-6.99z"/>
  </g>
  <g id="g204" transform="matrix(1.25,0,0,-1.25,-10.958,534.65)">
   <path id="path206" fill="#143a81" d="M0,0v6.99l-6.99-6.99h6.99z"/>
  </g>
  <g id="g208" transform="matrix(1.25,0,0,-1.25,-2.2216,517.18)">
   <path id="path210" fill="#143a81" d="M0,0-6.99-6.991h6.99v6.991z"/>
  </g>
  <g id="g212" transform="matrix(1.25,0,0,-1.25,-2.2228,490.96)">
   <path id="path214" fill="#143a81" d="M0,0v-6.99l6.99,6.99h-6.99z"/>
  </g>
  <g id="g216" transform="matrix(1.25,0,0,-1.25,6.5149,534.65)">
   <path id="path218" fill="#143a81" d="M0,0v6.99l-6.99-6.99h6.99z"/>
  </g>
  <g id="g220" transform="matrix(1.25,0,0,-1.25,6.5138,508.44)">
   <path id="path222" fill="#143a81" d="M0,0h-6.988v6.99l-6.991-6.99h-6.988v6.99l-6.99-6.99h6.989l6.99-6.99v6.99h6.989l6.99-6.99v6.99h6.989v6.99l-6.99-6.99z"/>
  </g>
  <g id="g224" transform="matrix(1.25,0,0,-1.25,15.252,525.92)">
   <path id="path226" fill="#143a81" d="M0,0v6.991l-6.99-6.991h6.99z"/>
  </g>
 </g>
</svg>
