<?xml version="1.0" encoding="UTF-8" standalone="no"?>
<!-- Created with Inkscape (http://www.inkscape.org/) -->
<svg id="svg2" xmlns:rdf="http://www.w3.org/1999/02/22-rdf-syntax-ns#" xmlns="http://www.w3.org/2000/svg" xml:space="preserve" height="112" width="301.22" version="1.1" xmlns:cc="http://creativecommons.org/ns#" xmlns:dc="http://purl.org/dc/elements/1.1/" viewBox="0 0 301.22143 112.00057"><metadata id="metadata4"><rdf:RDF><cc:Work rdf:about=""><dc:format>image/svg+xml</dc:format><dc:type rdf:resource="http://purl.org/dc/dcmitype/StillImage"/><dc:title/></cc:Work></rdf:RDF></metadata><defs id="defs6"><clipPath id="clipPath120" clipPathUnits="userSpaceOnUse"><path id="path9" d="M0,198.42h425.2v-198.42h-425.2v198.42z"/></clipPath></defs><g id="g11" transform="matrix(0.8804954,0,0,-0.8804954,-36.580966,149.1396)"><g id="g13" transform="translate(160.75,107.8)"><path id="path15" fill="#1a171b" d="M0,0h8.891v2.962h-11.854v-23.706h2.963v8.889h8.891v2.964h-8.891v8.891z"/></g><path id="path17" fill="#1a171b" d="m169.65,98.906h2.964v8.891h-2.964v-8.891z"/><g id="g19" transform="translate(182.5,101.87)"><path id="path21" fill="#1a171b" d="M0,0v2.967h-2.964v-17.781h2.964v11.853h2.963v2.961h-2.963z"/></g><g id="g23" fill="#1a171b"><path id="path25" d="m185.46,101.87h5.927v2.967h-5.927v-2.967z"/><path id="path27" d="m191.39,101.87h2.964v-2.961h-2.964v2.961z"/><path id="path29" d="m202.43,101.87h-2.964v-11.852h2.964v11.852z"/><path id="path31" d="m211.32,104.83h-8.89v-2.967h8.89v2.967z"/><path id="path33" d="m211.32,90.016h2.963v11.852h-2.96v-11.854z"/></g><g id="g35" transform="translate(205.39,90.016)"><path id="path37" fill="#1a171b" d="M0,0h-2.963v-2.963h8.89v2.963h-5.927z"/></g><g id="g39" transform="translate(224.17,95.941)"><path id="path41" fill="#1a171b" d="M0,0v5.926h-2.965v-11.852h2.965v5.926z"/></g><g id="g43" transform="translate(227.13,81.127)"><path id="path45" fill="#1a171b" d="M0,0h-2.963v-2.965h8.891v2.965h-5.928z"/></g><g id="g47" transform="translate(233.06,104.83)"><path id="path49" fill="#1a171b" d="M0,0h-8.891v-2.967h8.891v-11.851h-8.891v-2.963h8.891v-5.926h2.963v23.707h-2.963z"/></g><g id="g51" transform="translate(248.88,87.053)"><path id="path53" fill="#1a171b" d="M0,0h5.928v2.963h-8.891v-2.963h2.963z"/></g><path id="path55" fill="#1a171b" d="m257.77,92.979h-2.963v-2.963h2.963v2.963z"/><g id="g57" transform="translate(254.8,101.87)"><path id="path59" fill="#1a171b" d="M0,0v-2.961h-8.891v2.961h-2.964v-11.852h2.964v5.926h11.854v5.926h-2.963z"/></g><g id="g61" transform="translate(251.84,101.87)"><path id="path63" fill="#1a171b" d="M0,0h2.965v2.967h-8.891v-2.967h5.926z"/></g><g id="g65" transform="translate(279,110.76)"><path id="path67" fill="#1a171b" d="m0,0h-17.781v-2.962h8.89v-20.745h2.963v20.745h8.891v2.962h-2.963z"/></g><path id="path69" fill="#1a171b" d="m289.37,113.72h2.963v-2.963h-2.963v2.963z"/><g id="g71" transform="translate(286.41,104.83)"><path id="path73" fill="#1a171b" d="M0,0v-2.967h2.965v-14.814h2.963v17.781h-5.928z"/></g><path id="path75" fill="#1a171b" d="m304.1,113.72h2.963v-2.963h-2.96v2.963z"/><g id="g77" transform="translate(301.14,104.83)"><path id="path79" fill="#1a171b" d="M0,0v-2.967h2.963v-14.814h2.963v17.781h-5.926z"/></g><path id="path81" fill="#1a171b" d="m316.96,101.86h-2.963v-11.852h2.963v11.852z"/><path id="path83" fill="#1a171b" d="m316.96,78.16h8.891v2.965h-8.89v-2.965z"/><g id="g85" transform="translate(316.96,104.83)"><path id="path87" fill="#1a171b" d="M0,0v-2.967h8.891v-11.851h-8.891v-2.963h8.891v-5.926h2.963v23.707h-11.854z"/></g><g id="g89" fill="#1a171b"><path id="path91" d="m347.59,90.014h-8.891v-2.963h8.891v2.963z"/><path id="path93" d="m350.55,92.977h-2.963v-2.963h2.963v2.963z"/><path id="path95" d="m347.59,104.83h-8.891v-2.967h8.891v2.967z"/></g><g id="g97" transform="translate(347.59,101.87)"><path id="path99" fill="#1a171b" d="M0,0v-2.961h-8.891v2.961h-2.963v-11.852h2.963v5.926h11.854v5.926h-2.963z"/></g><g id="g101" transform="translate(360.44,104.83)"><path id="path103" fill="#1a171b" d="M0,0h-2.963v-17.781h2.963v11.853h2.965v2.961h-2.965v2.967z"/></g><path id="path105" fill="#1a171b" d="m369.33,98.904h2.965v2.961h-2.965v-2.961z"/><path id="path107" fill="#1a171b" d="m363.41,101.86h5.926v2.967h-5.926v-2.967z"/><g id="g109" transform="translate(63.392,109.4)"><path id="path111" fill="#f5a200" d="M0,0,0.668-3.289,0.003,0h-0.003z"/></g><g id="g113" transform="translate(133.16,109.4)"><path id="path115" fill="#f5a200" d="M0,0-0.841-4.152,0.002,0h-0.002z"/></g><g id="g117" transform="translate(132.08,110.47)"><path id="path119" fill="#f5a200" d="M0,0-8.665,8.665-4.174,4.172,0,0z"/></g><g id="g121" clip-path="url(#clipPath120)"><g id="g123" transform="translate(112.18,108.35)"><path id="path125" fill="#f5a200" d="M0,0c-1.183,0-2.138,0.959-2.138,2.141,0,1.18,0.955,2.139,2.138,2.139,1.181,0,2.139-0.959,2.139-2.139,0-1.182-0.958-2.141-2.139-2.141m-27.832,4.28c1.183,0,2.139-0.959,2.139-2.139,0-1.182-0.956-2.141-2.139-2.141-1.18,0-2.139,0.959-2.139,2.141,0,1.18,0.959,2.139,2.139,2.139m-7.796-5.899-0.003,0.001-5.242-5.243-5.245-5.246-6.58,1.332-6.578,1.334,5.246,5.244,5.244,5.245,0.002,0.002,5.245,5.243,5.244,5.249,1.333-6.579,1.333-6.578h0.001-0.001l0.001-0.004zm60.519-9.156-6.579-1.332-5.246,5.246-5.243,5.243-0.003-0.001,0.001,0.004h-0.001,0.001l1.334,6.578,1.331,6.578-7.28,7.28h0.002l-12.798,12.799-3.559,3.557v-0.034h-1.509v0.035l-3.561-3.558-7.438-7.439,0.011-0.003-6.315-6.314-6.315-6.315-0.003,0.01-0.016-0.016-20.984-20.984,10.695-10.696h11.15v12.836h19.194v18.85h-11.731v3.973h11.731v8.523h8.614v-8.523h11.765v-3.973h-11.765v-18.85h19.251v-12.836h11.149l10.697,10.696-6.58-1.334z"/></g><path id="path127" fill="#FFF" d="m118.89,92.742h-1.644v1.641h1.644v-1.641zm-2.397-3.699h-1.644v1.643h1.644v-1.643zm-2.375,3.699h-1.643v1.641h1.643v-1.641zm-30.083,0h-1.643v1.641h1.643v-1.641zm-2.397-3.699h-1.644v1.643h1.644v-1.643zm-2.373,3.699h-1.643v1.641h1.643v-1.641zm42.54-4.529v8.861h-19.242v-5.635h-0.009l-3.468-5.201v-5.664h10.108v6.504h1.661v-8.164h-25.221v8.164h1.66v-6.504h10.127v5.635l-3.487,5.23h0.009v5.635h-19.202v-23.783h47.058l0.001,0.002v14.92z"/><g id="g129" transform="translate(86.521,132.53)"><path id="path131" fill="#1a171b" d="m0,0-8.617,2.31-8.626,2.312,2.311-8.629,2.309-8.615l7.263,7.262,5.36,5.36z"/></g><g id="g133" transform="translate(80.217,126.21)"><path id="path135" fill="#1a171b" d="M0,0,6.315,6.314,6.304,6.317,0.944,0.957-6.318-6.305-6.315-6.314,0,0z"/></g><g id="g137" transform="translate(122.67,119.89)"><path id="path139" fill="#1a171b" d="M0,0,2.312,8.625,4.623,17.252-4.003,14.941-12.63,12.629-6.314,6.314,0,0z"/></g><g id="g141" transform="translate(84.346,108.35)"><path id="path143" fill="#1a171b" d="M0,0c1.183,0,2.139,0.959,2.139,2.141,0,1.18-0.956,2.139-2.139,2.139-1.18,0-2.139-0.959-2.139-2.139,0-1.182,0.959-2.141,2.139-2.141"/></g><g id="g145" transform="translate(64.06,106.11)"><path id="path147" fill="#1a171b" d="M0,0-0.668,3.289-5.912-1.957-11.158-7.201-4.58-8.535,2-9.867,0.666-3.291,0,0z"/></g><g id="g149" transform="translate(76.55,106.73)"><path id="path151" fill="#1a171b" d="M0,0-0.001,0.004-0.003,0.001,0,0z"/></g><g id="g153" transform="translate(63.394,109.4)"><path id="path155" fill="#1a171b" d="M0,0-0.002-0.002h0.002v0.002z"/></g><g id="g157" transform="translate(76.549,106.73)"><path id="path159" fill="#1a171b" d="M0,0-1.333,6.579-2.666,13.157-7.91,7.909-13.155,2.666-6.578,1.332,0,0z"/></g><g id="g161" transform="translate(76.549,106.73)"><path id="path163" fill="#FFF" d="M0,0h0.001-0.001z"/></g><g id="g165" transform="translate(63.394,109.4)"><path id="path167" fill="#FFF" d="m0,0,0.666-3.289,0.667-3.289,1.333-6.578,5.245,5.246,5.242,5.243l-6.576,1.335-6.577,1.332z"/></g><g id="g169" transform="translate(63.394,109.4)"><path id="path171" fill="#FFF" d="M0,0z"/></g><g id="g173" transform="translate(64.06,106.11)"><path id="path175" fill="#FFF" d="M0,0,0.666-3.291,2-9.867,0.668-3.289,0,0z"/></g><g id="g177" transform="translate(69.971,108.07)"><path id="path179" fill="#FFF" d="M0,0,6.576-1.335,6.578-1.332,0,0z"/></g><g id="g181" transform="translate(69.971,108.07)"><path id="path183" fill="#FFF" d="M0,0-6.577,1.333v-0.001l6.577-1.332z"/></g><g id="g185" transform="translate(143.65,98.908)"><path id="path187" fill="#1a171b" d="M0,0-5.245,5.244-10.491,10.49,0,0z"/></g><g id="g189" transform="translate(132.31,105.25)"><path id="path191" fill="#1a171b" d="m0,0-0.492-2.428-1.333-6.576,6.579,1.332,6.58,1.334l-10.491,10.49-0.843-4.152z"/></g><g id="g193" transform="translate(122.66,119.89)"><path id="path195" fill="#1a171b" d="M0,0v-0.001l0.754-0.754-0.754,0.755z"/></g><g id="g197" transform="translate(133.16,109.4)"><path id="path199" fill="#1a171b" d="M0,0-1.072,1.071,0,0z"/></g><g id="g201" transform="translate(133.16,109.4)"><path id="path203" fill="#1a171b" d="M0,0-0.001,0.002,0,0z"/></g><g id="g205" transform="translate(120,106.73)"><path id="path207" fill="#1a171b" d="M0,0,0.003,0.001,0.001,0.004,0,0z"/></g><g id="g209" transform="translate(133.16,109.4)"><path id="path211" fill="#1a171b" d="M0,0-0.001,0.002-0.002,0h0.002z"/></g><g id="g213" transform="translate(120,106.73)"><path id="path215" fill="#1a171b" d="M0,0,6.579,1.332,13.156,2.666,12.084,3.737,7.91,7.909,3.419,12.402,2.665,13.156,1.334,6.579,0,0z"/></g><g id="g217" transform="translate(133.16,109.4)"><path id="path219" fill="#FFF" d="M0,0z"/></g><g id="g221" transform="translate(120,106.73)"><path id="path223" fill="#FFF" d="M0,0h0.001-0.001z"/></g><g id="g225" transform="translate(132.31,105.25)"><path id="path227" fill="#FFF" d="M0,0,0.841,4.152-5.736,2.82-12.313,1.485-7.07-3.758-1.825-9.004-0.493-2.426,0,0z"/></g><g id="g229" transform="translate(132.31,105.25)"><path id="path231" fill="#FFF" d="M0,0-0.493-2.426-1.825-9.004-0.492-2.428,0,0z"/></g><g id="g233" transform="translate(133.16,109.4)"><path id="path235" fill="#FFF" d="M0,0z"/></g><g id="g237" transform="translate(133.16,109.4)"><path id="path239" fill="#FFF" d="M0,0-6.577-1.333,0-0.002v0.002z"/></g><g id="g241" transform="translate(120,106.73)"><path id="path243" fill="#FFF" d="M0,0,0.002-0.003,6.579,1.332,0,0z"/></g><g id="g245" transform="translate(74.744,88.213)"><path id="path247" fill="#1a171b" d="M0,0h-11.15l11.15-11.15v11.15z"/></g><g id="g249" transform="translate(121.8,88.213)"><path id="path251" fill="#1a171b" d="m0,0v-11.148l11.149,11.148h-11.149z"/></g><g id="g253" fill="#1a171b"><path id="path255" d="m77.62,92.742h1.643v1.641h-1.643v-1.641z"/><path id="path257" d="m82.391,92.742h1.643v1.641h-1.643v-1.641z"/><path id="path259" d="m79.992,89.043h1.644v1.643h-1.644v-1.643z"/><path id="path261" d="m112.47,92.742h1.643v1.641h-1.643v-1.641z"/><path id="path263" d="m117.24,92.742h1.644v1.641h-1.644v-1.641z"/><path id="path265" d="m114.85,89.043h1.644v1.643h-1.644v-1.643z"/></g><g id="g267" transform="translate(93.946,97.074)"><path id="path269" fill="#ee8b00" d="M0,0v-5.635h8.614v5.635h-8.614z"/></g><g id="g271" transform="translate(93.938,132.4)"><path id="path273" fill="#FFF" d="m0,0v-35.321h8.614v35.321h-8.614z"/></g><g id="g275" transform="translate(93.936,91.44)"><path id="path277" fill="#1a171b" d="m0,0,3.487-5.23v-5.635h-10.127v6.504h-1.66v-8.164h25.216v8.164h-1.66v-6.504h-10.109v5.664l3.468,5.201h-8.615z"/></g><path id="path279" fill="#1a171b" d="M93.938,101.05h-19.193v-3.975h19.193v3.975z"/><g id="g281" transform="translate(102.56,97.074)"><path id="path283" fill="#1a171b" d="M0,0h19.242v3.975h-19.251v-3.975h0.009z"/></g><path id="path285" fill="#1a171b" d="m82.207,119.9h11.73v3.973h-11.73v-3.97z"/><g id="g287" transform="translate(112.18,112.63)"><path id="path289" fill="#1a171b" d="m0,0c-1.183,0-2.138-0.959-2.138-2.139,0-1.182,0.955-2.141,2.138-2.141,1.181,0,2.139,0.959,2.139,2.141,0,1.18-0.958,2.139-2.139,2.139"/></g><path id="path291" fill="#1a171b" d="m114.32,123.87h-11.765v-3.973h11.765v3.973z"/><g id="g293" transform="translate(98.273,53.537)"><path id="path295" fill="#f5a200" d="M0,0,15.781,15.779h-31.563l15.782-15.779z"/></g><g id="g297" transform="translate(78.516,73.291)"><path id="path299" fill="#1a171b" d="m0,0h-3.771v-3.975h47.058v3.975h-43.287z"/></g><g id="g301" transform="translate(98.273,158.84)"><path id="path303" fill="#1a171b" d="m0,0c-0.258,0-0.509,0.03-0.754,0.076v-15.424h1.509v15.424c-0.246-0.046-0.496-0.076-0.755-0.076"/></g><g id="g305" transform="translate(98.273,167.11)"><path id="path307" fill="#e2001a" d="m0,0c-2.282,0-4.133-1.851-4.133-4.134,0-2.023,1.457-3.701,3.379-4.056,0.245-0.046,0.496-0.077,0.754-0.077,0.259,0,0.509,0.031,0.755,0.077,1.922,0.355,3.378,2.033,3.378,4.056,0,2.283-1.849,4.134-4.133,4.134"/></g></g></g></svg>
