<?xml version="1.0" encoding="UTF-8" standalone="no"?>
<!-- Created with Inkscape (http://www.inkscape.org/) -->

<svg
   xmlns:dc="http://purl.org/dc/elements/1.1/"
   xmlns:cc="http://creativecommons.org/ns#"
   xmlns:rdf="http://www.w3.org/1999/02/22-rdf-syntax-ns#"
   xmlns:svg="http://www.w3.org/2000/svg"
   xmlns="http://www.w3.org/2000/svg"
   xmlns:sodipodi="http://sodipodi.sourceforge.net/DTD/sodipodi-0.dtd"
   xmlns:inkscape="http://www.inkscape.org/namespaces/inkscape"
   id="svg2"
   version="1.1"
   inkscape:version="0.48.4 r9939"
   width="440"
   height="100"
   sodipodi:docname="logo-english.svg"
   inkscape:export-filename="C:\Users\user\Pictures\robologo.png"
   inkscape:export-xdpi="365.50635"
   inkscape:export-ydpi="365.50635">
  <metadata
     id="metadata8">
    <rdf:RDF>
      <cc:Work
         rdf:about="">
        <dc:format>image/svg+xml</dc:format>
        <dc:type
           rdf:resource="http://purl.org/dc/dcmitype/StillImage" />
        <dc:title></dc:title>
      </cc:Work>
    </rdf:RDF>
  </metadata>
  <defs
     id="defs6" />
  <sodipodi:namedview
     pagecolor="#ffffff"
     bordercolor="#666666"
     borderopacity="1"
     objecttolerance="10"
     gridtolerance="10"
     guidetolerance="10"
     inkscape:pageopacity="0"
     inkscape:pageshadow="2"
     inkscape:window-width="1920"
     inkscape:window-height="1144"
     id="namedview4"
     showgrid="false"
     inkscape:zoom="3.0248457"
     inkscape:cx="226.26168"
     inkscape:cy="-17.895058"
     inkscape:window-x="0"
     inkscape:window-y="0"
     inkscape:window-maximized="1"
     inkscape:current-layer="svg2" />
  <path
     sodipodi:type="arc"
     style="fill:#ff7f4d;fill-opacity:1;stroke:none"
     id="path2991"
     sodipodi:cx="96.779221"
     sodipodi:cy="63.155846"
     sodipodi:rx="36.935066"
     sodipodi:ry="36.935066"
     d="m 133.71429,63.155846 a 36.935066,36.935066 0 1 1 -73.870136,0 36.935066,36.935066 0 1 1 73.870136,0 z"
     transform="translate(-46.835132,-12.848373)" />
  <rect
     style="fill:#ffffff;fill-opacity:1;stroke:none"
     id="rect2995"
     width="47.688313"
     height="25.128626"
     x="26.203817"
     y="34.113792"
     ry="3.2248404" />
  <rect
     style="fill:#ffffff;fill-opacity:1;stroke:none"
     id="rect2997"
     width="36.511364"
     height="3.5180075"
     x="31.419722"
     y="61.790329"
     ry="1.7590038" />
  <rect
     style="fill:#ffffff;fill-opacity:1;stroke:none"
     id="rect2999"
     width="9.4383116"
     height="7.4394736"
     x="45.328823"
     y="66.945938"
     ry="3.7197368" />
  <rect
     style="fill:#ffffff;fill-opacity:1;stroke:none"
     id="rect3001"
     width="15.071108"
     height="2.4734173"
     x="46.716934"
     y="-9.615097"
     transform="matrix(0.70712142,0.70709214,-0.68316984,0.73025952,0,0)"
     ry="1.0690835" />
  <rect
     transform="matrix(-0.71473737,0.69939295,0.69102636,0.72282955,0,0)"
     y="61.586411"
     x="-26.099089"
     height="2.4988415"
     width="15.237018"
     id="rect3003"
     style="fill:#ffffff;fill-opacity:1;stroke:none"
     ry="1.068949" />
  <path
     sodipodi:type="arc"
     style="fill:#000000;fill-opacity:1;stroke:none"
     id="path3005"
     sodipodi:cx="81.818184"
     sodipodi:cy="56.61039"
     sodipodi:rx="4.6753244"
     sodipodi:ry="4.6753244"
     d="m 86.493508,56.61039 a 4.6753244,4.6753244 0 1 1 -9.350649,0 4.6753244,4.6753244 0 1 1 9.350649,0 z"
     transform="matrix(1.0625,0,0,1.0749468,-50.296173,-14.175047)" />
  <path
     sodipodi:type="arc"
     style="fill:#f9f9f9;fill-opacity:1;stroke:none"
     id="path3007"
     sodipodi:cx="80.766235"
     sodipodi:cy="55.675323"
     sodipodi:rx="1.7532468"
     sodipodi:ry="1.6363636"
     d="m 82.519482,55.675323 a 1.7532468,1.6363636 0 1 1 -3.506493,0 1.7532468,1.6363636 0 1 1 3.506493,0 z"
     transform="matrix(1.0625,0,0,1.0749468,-50.296173,-14.175047)" />
  <path
     d="m 86.493508,56.61039 a 4.6753244,4.6753244 0 1 1 -9.350649,0 4.6753244,4.6753244 0 1 1 9.350649,0 z"
     sodipodi:ry="4.6753244"
     sodipodi:rx="4.6753244"
     sodipodi:cy="56.61039"
     sodipodi:cx="81.818184"
     id="path3009"
     style="fill:#000000;fill-opacity:1;stroke:none"
     sodipodi:type="arc"
     transform="matrix(1.0625,0,0,1.0749468,-24.796171,-14.175047)" />
  <path
     d="m 82.519482,55.675323 a 1.7532468,1.6363636 0 1 1 -3.506493,0 1.7532468,1.6363636 0 1 1 3.506493,0 z"
     sodipodi:ry="1.6363636"
     sodipodi:rx="1.7532468"
     sodipodi:cy="55.675323"
     sodipodi:cx="80.766235"
     id="path3011"
     style="fill:#f9f9f9;fill-opacity:1;stroke:none"
     sodipodi:type="arc"
     transform="matrix(1.0625,0,0,1.0749468,-24.796171,-14.175047)" />
  <rect
     ry="1.7590038"
     y="66.257858"
     x="31.419722"
     height="3.5180075"
     width="36.511364"
     id="rect3781"
     style="fill:#ffffff;fill-opacity:1;stroke:none" />
  <g
     style="font-size:36px;font-style:normal;font-weight:normal;line-height:125%;letter-spacing:0px;word-spacing:0px;fill:#000000;fill-opacity:1;stroke:none;font-family:quantico;-inkscape-font-specification:quantico"
     id="text2992">
    <path
       d="m 119.116,39.619999 -5.472,-9.504 4.176,-2.412 0,-10.872 -4.176,-2.412 -13.644,0 0,25.2 5.04,0 0,-9.504 3.132,0 5.4,9.504 5.544,0 m -14.076,-20.88 7.74,0 0,7.056 -7.74,0 0,-7.056"
       style=""
       id="path3018" />
    <path
       d="m 139.56625,37.387999 0,-13.536 -4.176,-2.412 -7.668,0 -4.176,2.412 0,13.536 4.176,2.412 7.668,0 4.176,-2.412 m -11.088,-11.736 6.156,0 0,9.936 -6.156,0 0,-9.936"
       style=""
       id="path3020" />
    <path
       d="m 152.47956,21.439999 -2.556,1.476 0,-9.576 -4.932,0 0,26.46 2.376,0 2.556,-1.476 2.556,1.476 4.716,0 4.176,-2.412 0,-13.536 -4.176,-2.412 -4.716,0 m -2.556,4.212 6.516,0 0,9.936 -6.516,0 0,-9.936"
       style=""
       id="path3022" />
    <path
       d="m 182.80844,37.387999 0,-13.536 -4.176,-2.412 -7.668,0 -4.176,2.412 0,13.536 4.176,2.412 7.668,0 4.176,-2.412 m -11.088,-11.736 6.156,0 0,9.936 -6.156,0 0,-9.936"
       style=""
       id="path3024" />
    <path
       d="m 186.79375,25.831999 3.312,0 0,11.376 4.176,2.412 4.716,0 0,-4.212 -3.96,0 0,-9.576 3.96,0 0,-4.212 -3.96,0 0,-5.868 -4.932,2.844 0,3.024 -3.312,0 0,4.212"
       style=""
       id="path3026" />
    <path
       d="m 208.6345,21.619999 -4.932,0 0,18 4.932,0 0,-18 m -5.112,-3.348 5.292,0 0,-4.932 -5.292,0 0,4.932"
       style=""
       id="path3028" />
    <path
       d="m 218.97044,25.831999 8.928,0 0,-4.212 -9.684,0 -4.176,2.412 0,13.176 4.176,2.412 9.684,0 0,-4.212 -8.928,0 0,-9.576"
       style=""
       id="path3030" />
    <path
       d="m 246.85694,30.763999 -4.176,-2.412 -5.148,0 0,-2.52 8.964,0 0,-4.212 -9.72,0 -4.176,2.412 0,6.192 4.176,2.412 5.148,0 0,2.772 -9.324,0 0,4.212 10.08,0 4.176,-2.412 0,-6.444"
       style=""
       id="path3032" />
    <path
       d="m 275.5,32.239999 0,3.24 -8.46,0 0,-16.92 8.46,0 0,3.24 5.04,0 0,-5.148 -4.176,-2.412 -10.188,0 -4.176,2.412 0,20.736 4.176,2.412 10.188,0 4.176,-2.412 0,-5.148 -5.04,0"
       style=""
       id="path3034" />
    <path
       d="m 290.14413,39.619999 4.356,0 0,-4.212 -3.6,0 0,-22.068 -4.932,0 0,23.868 4.176,2.412"
       style=""
       id="path3036" />
    <path
       d="m 297.71031,37.387999 4.176,2.412 4.356,0 2.556,-1.476 0.864,1.476 4.068,0 0,-18.18 -4.932,0 0,13.968 -6.156,0 0,-13.968 -4.932,0 0,15.768"
       style=""
       id="path3038" />
    <path
       d="m 326.64363,21.439999 -2.556,1.476 0,-9.576 -4.932,0 0,26.46 2.376,0 2.556,-1.476 2.556,1.476 4.716,0 4.176,-2.412 0,-13.536 -4.176,-2.412 -4.716,0 m -2.556,4.212 6.516,0 0,9.936 -6.516,0 0,-9.936"
       style=""
       id="path3040" />
    <path
       d="m 366.32406,37.387999 0,-13.536 -4.176,-2.412 -7.668,0 -4.176,2.412 0,13.536 4.176,2.412 7.668,0 4.176,-2.412 m -11.088,-11.736 6.156,0 0,9.936 -6.156,0 0,-9.936"
       style=""
       id="path3042" />
    <path
       d="m 370.30938,25.831999 3.312,0 0,13.788 4.932,0 0,-13.788 3.96,0 0,-4.212 -3.96,0 0,-4.068 3.96,0 0,-4.212 -4.716,0 -4.176,2.412 0,5.868 -3.312,0 0,4.212"
       style=""
       id="path3044" />
    <path
       d="m 105.04,73.819999 7.884,0 0,-4.32 -7.884,0 0,-5.76 10.044,0 0,-4.32 -15.084,0 0,25.2 15.084,0 0,-4.32 -10.044,0 0,-6.48"
       style=""
       id="path3046" />
    <path
       d="m 133.65381,75.763999 -4.176,-2.412 -5.148,0 0,-2.52 8.964,0 0,-4.212 -9.72,0 -4.176,2.412 0,6.192 4.176,2.412 5.148,0 0,2.772 -9.324,0 0,4.212 10.08,0 4.176,-2.412 0,-6.444"
       style=""
       id="path3048" />
    <path
       d="m 137.64531,70.831999 3.312,0 0,11.376 4.176,2.412 4.716,0 0,-4.212 -3.96,0 0,-9.576 3.96,0 0,-4.212 -3.96,0 0,-5.868 -4.932,2.844 0,3.024 -3.312,0 0,4.212"
       style=""
       id="path3050" />
    <path
       d="m 170.57406,82.387999 0,-13.536 -4.176,-2.412 -7.668,0 -4.176,2.412 0,13.536 4.176,2.412 7.668,0 4.176,-2.412 m -11.088,-11.736 6.156,0 0,9.936 -6.156,0 0,-9.936"
       style=""
       id="path3052" />
    <path
       d="m 192.01938,68.851999 -4.176,-2.412 -4.356,0 -2.556,1.476 -0.864,-1.476 -4.068,0 0,18.18 4.932,0 0,-13.968 6.156,0 0,13.968 4.932,0 0,-15.768"
       style=""
       id="path3054" />
    <path
       d="m 202.37669,66.619999 -4.932,0 0,18 4.932,0 0,-18 m -5.112,-3.348 5.292,0 0,-4.932 -5.292,0 0,4.932"
       style=""
       id="path3056" />
    <path
       d="m 211.99263,77.527999 5.076,0 0,3.132 -5.076,0 0,-3.132 m -0.756,7.272 3.276,0 2.556,-1.476 2.556,1.476 2.376,0 0,-15.768 -4.176,-2.412 -8.964,0 0,4.212 8.208,0 0,2.916 -5.832,0 -4.176,2.412 0,6.228 4.176,2.412"
       style=""
       id="path3058" />
    <path
       d="m 243.41781,68.851999 -4.176,-2.412 -4.356,0 -2.556,1.476 -0.864,-1.476 -4.068,0 0,18.18 4.932,0 0,-13.968 6.156,0 0,13.968 4.932,0 0,-15.768"
       style=""
       id="path3060" />
    <path
       d="m 258.55469,84.619999 5.04,0 0,-25.2 -5.04,0 0,25.2"
       style=""
       id="path3062" />
    <path
       d="m 279.41838,63.739999 6.804,0 0,-4.32 -18.648,0 0,4.32 6.804,0 0,20.88 5.04,0 0,-20.88"
       style=""
       id="path3064" />
    <path
       d="m 313.04688,77.239999 0,3.24 -8.46,0 0,-16.92 8.46,0 0,3.24 5.04,0 0,-5.148 -4.176,-2.412 -10.188,0 -4.176,2.412 0,20.736 4.176,2.412 10.188,0 4.176,-2.412 0,-5.148 -5.04,0"
       style=""
       id="path3066" />
    <path
       d="m 339.535,82.387999 0,-13.536 -4.176,-2.412 -7.668,0 -4.176,2.412 0,13.536 4.176,2.412 7.668,0 4.176,-2.412 m -11.088,-11.736 6.156,0 0,9.936 -6.156,0 0,-9.936"
       style=""
       id="path3068" />
    <path
       d="m 349.13631,84.619999 4.356,0 0,-4.212 -3.6,0 0,-22.068 -4.932,0 0,23.868 4.176,2.412"
       style=""
       id="path3070" />
    <path
       d="m 360.8785,84.619999 4.356,0 0,-4.212 -3.6,0 0,-22.068 -4.932,0 0,23.868 4.176,2.412"
       style=""
       id="path3072" />
    <path
       d="m 383.38469,80.407999 -10.008,0 0,-2.952 10.008,0 0,-8.604 -4.176,-2.412 -6.588,0 -4.176,2.412 0,13.356 4.176,2.412 10.764,0 0,-4.212 m -10.008,-9.756 5.076,0 0,3.096 -5.076,0 0,-3.096"
       style=""
       id="path3074" />
    <path
       d="m 388.045,89.587999 4.176,2.412 8.748,0 4.176,-2.412 0,-6.408 -4.176,-2.412 -7.272,0 0,-2.34 6.192,0 4.176,-2.412 0,-3.888 -2.196,-1.296 3.276,-1.908 0,-2.304 -12.204,0 -4.176,2.412 0,7.38 2.556,1.476 -2.556,1.476 0,3.24 3.456,2.016 -4.176,2.448 0,2.52 m 12.168,-4.968 0,3.24 -7.236,0 0,-3.24 7.236,0 m -6.516,-13.968 5.436,0 0,3.744 -5.436,0 0,-3.744"
       style=""
       id="path3076" />
    <path
       d="m 424.79875,80.407999 -10.008,0 0,-2.952 10.008,0 0,-8.604 -4.176,-2.412 -6.588,0 -4.176,2.412 0,13.356 4.176,2.412 10.764,0 0,-4.212 m -10.008,-9.756 5.076,0 0,3.096 -5.076,0 0,-3.096"
       style=""
       id="path3078" />
  </g>
</svg>
